<svg width="118" height="80" viewBox="0 0 118 80" fill="none" xmlns="http://www.w3.org/2000/svg">
<g clip-path="url(#clip0_15_8074)">
<path d="M54.8089 65.2647C54.2298 66.0048 53.8084 66.5464 53.8084 66.5464C53.8084 66.5464 38.3165 50.274 9.57028 43.3886C10.4267 43.2184 11.362 43.0869 12.3951 43.0611C12.9879 43.0456 13.9911 43.0224 15.2717 42.9889C23.6484 46.1015 32.8054 49.7918 37.8543 52.7265C44.4529 56.5612 50.815 61.7627 54.8062 65.2673L54.8089 65.2647Z" fill="#F9E1A3"/>
<path d="M57.4408 61.8838C56.7583 62.7632 55.6273 64.2151 54.8089 65.2646C50.8177 61.76 44.4529 56.5586 37.857 52.7239C32.8109 49.7892 23.6511 46.0989 15.2744 42.9863C21.1933 42.8341 33.1072 42.4602 38.7352 41.6401C45.5839 40.6395 45.4752 39.6415 48.4251 41.6401C51.375 43.6387 58.4087 48.9665 61.3015 49.9671C64.1943 50.9651 58.599 60.3829 57.4408 61.8812V61.8838Z" fill="#5E4136"/>
<path d="M77.0136 54.297C77.4051 54.2196 77.7803 54.1216 78.1419 54.0107C75.4204 57.1621 73.7184 61.0148 68.8462 63.2893C64.4227 65.3549 59.5913 66.683 56.4157 69.1045C56.5626 68.9421 58.9415 66.3065 60.9154 64.0449C62.9518 61.7137 67.8185 57.6262 69.1671 56.7933C70.5156 55.9629 71.2198 55.4626 77.0136 54.2944V54.297Z" fill="#F9E1A3"/>
<path d="M113.892 38.3341C113.892 38.3341 113.307 38.3909 112.375 38.4476C96.9671 28.6713 93.2804 11.5222 92.4022 3.88117C92.9188 2.90895 93.3973 2.03731 93.8269 1.32556C94.7105 6.74365 95.9421 27.4825 113.895 38.3367L113.892 38.3341Z" fill="#F9E1A3"/>
<path d="M112.372 38.445C110.455 38.5636 107.065 38.6848 104.232 38.3315C100.018 37.808 90.8253 38.1897 87.8699 38.3315C87.8699 38.3315 79.6482 29.5275 77.3643 28.171C77.3643 28.171 79.3409 22.6317 83.2696 18.8099C86.4425 15.7231 89.8791 8.60294 92.3968 3.87598C93.2777 11.5196 96.9617 28.6661 112.369 38.4424L112.372 38.445Z" fill="#5E4136"/>
<path d="M114.37 42.4757C109.245 44.3505 97.9568 48.327 93.3538 49.6345C89.9281 50.6093 86.7443 50.1064 83.9113 50.55C85.5698 49.1368 87.0135 47.7803 88.7807 47.3032C92.4674 46.3052 106.69 43.974 109.852 42.9734C110.936 42.6304 112.598 42.5221 114.37 42.4757Z" fill="#F9E1A3"/>
<path d="M64.7218 50.55C64.0203 52.5383 60.3336 61.3836 57.7099 64.4679C56.2825 66.1467 54.2244 67.9777 52.6474 69.298C52.3728 69.0195 52.4626 68.2949 53.8029 66.5516C53.8029 66.549 53.8057 66.5464 53.8057 66.5464C53.8057 66.5464 56.2798 63.3822 57.4407 61.8839C58.599 60.3856 64.1943 50.9678 61.3015 49.9672C58.4086 48.9666 51.375 43.6362 48.4251 41.6402C47.2261 40.8279 46.5328 40.5107 45.6709 40.4875C45.7443 40.4617 45.815 40.4385 45.883 40.4204C50.5784 39.113 58.4005 42.8961 60.9508 44.2294C63.501 45.5626 65.4232 48.5592 64.7191 50.55H64.7218Z" fill="#F9E1A3"/>
<path d="M46.6905 37.741C41.473 39.5797 17.3135 41.2302 11.5169 42.0012C8.16734 42.4474 3.52901 41.8697 0.209322 41.3049C-0.524763 40.7273 0.666085 40.8124 3.96675 39.9124C4.32563 39.8144 4.89387 39.7138 5.62795 39.6081C8.37397 40.0774 11.2804 40.5133 12.2184 40.4204C14.1488 40.2322 36.6389 37.1531 40.0565 36.9442C43.4741 36.7353 55.1759 34.551 57.9301 31.3971C60.6843 28.2407 66.9458 25.7444 69.6972 24.161C72.4487 22.5776 84.2131 13.2371 86.1434 8.16459C86.1434 8.16459 86.1407 8.16459 86.1325 8.16975C85.9205 8.24712 82.6742 9.454 83.8623 8.16459C85.0912 6.83135 87.7231 6.49868 87.7231 6.49868C87.7231 6.49868 91.94 0.335311 93.3429 0.00264416C93.4652 -0.0257228 93.5658 0.147058 93.6556 0.492619C88.6284 7.09954 79.2729 19.3077 77.3643 21.2211C74.7298 23.8644 60.9507 31.5415 58.9959 32.6221C57.0438 33.7026 51.9025 35.8997 46.6877 37.7384L46.6905 37.741Z" fill="#F9E1A3"/>
<path d="M116.912 38.5662C115.983 39.1697 114.936 39.6467 113.892 39.7318C110.73 39.9872 92.2934 42.2281 90.238 42.1585C88.1826 42.0863 81.0538 41.5628 79.1234 40.4849C77.193 39.4069 75.0832 35.2344 75.7031 33.7774C76.323 32.3203 77.3643 28.171 77.3643 28.171C79.6454 29.5275 87.8699 38.3316 87.8699 38.3316C90.8253 38.1897 100.018 37.8081 104.232 38.3316C108.446 38.8551 113.889 38.3316 113.889 38.3316C113.889 38.3316 113.889 38.3316 113.892 38.3316C114.006 38.2851 116.7 37.2149 116.872 38.3316C116.885 38.4141 116.896 38.494 116.907 38.5662H116.912Z" fill="#F9E1A3"/>
<path d="M82.9216 50.5499C72.1007 46.8932 76.3529 51.8909 76.3529 51.8909C76.3529 51.8909 82.8183 57.2213 78.161 64.7154C78.0767 64.852 77.9924 64.981 77.9054 65.1099C77.522 65.2337 77.1468 65.4916 76.7907 65.5973C76.6602 65.636 76.2523 65.6541 76.1626 65.7443C76.0403 65.8629 76.1517 66.3245 76.149 66.4664C76.13 67.1962 75.7738 66.9667 75.1757 67.124C74.6564 67.2632 74.2159 67.4386 73.819 67.7171C73.3541 68.0446 72.3997 67.9492 71.8451 67.8435C71.5732 67.7919 71.3802 67.7119 71.0974 67.7068C70.7059 67.6991 70.5781 67.7919 70.2519 67.9492C69.9093 68.1142 69.4689 68.0524 69.0773 68.0472C68.5227 68.042 68.3025 68.2174 67.8267 68.3902C66.6032 68.171 65.5945 68.0524 64.9556 68.5449C64.8332 68.6403 64.7082 68.7693 64.5804 68.924C64.4825 68.9781 64.3792 69.0297 64.2405 69.0529C64.0285 69.089 63.8844 69.1097 63.675 69.1716C63.2862 69.285 62.9002 69.4011 62.7887 69.7827C62.7479 69.9246 62.7533 70.314 62.7887 70.4532C62.8485 70.6879 62.9681 70.626 63.0551 70.8091C63.2509 71.2166 62.544 71.4744 62.2612 71.7504C62.0791 71.9283 62.0709 72.0263 62.0763 72.2868C62.0872 72.6839 62.234 72.7561 62.4515 73.0166C62.6092 73.2023 62.5821 73.1249 62.6228 73.4034C62.6636 73.6948 62.6201 74.0223 62.6201 74.3163C62.6201 75.6676 62.6419 77.0215 62.6201 78.3754C62.6201 78.5327 62.5304 78.9092 62.631 79.0562C62.8077 79.3192 63.3814 79.216 63.6315 79.1774C64.4608 79.0484 65.2193 78.4785 66.0567 78.4708C66.0948 78.4708 66.1383 78.4708 66.1845 78.4759C66.4645 78.5868 66.7691 78.6797 67.0953 78.7596C67.2421 78.8808 67.359 79.0278 67.5303 79.1696C67.8076 79.3966 68.0986 79.6312 68.3786 79.853C68.7348 80.1367 68.7919 79.9587 69.2024 79.8066C69.6238 79.6519 70.086 79.7086 70.5346 79.7086C71.2986 79.7086 72.0599 79.7086 72.8239 79.7086C73.5226 79.7086 74.0528 79.7963 74.5667 79.2573C74.9881 78.8137 75.2572 78.2284 75.9016 78.2077C76.4671 78.1897 77.3208 78.3857 77.8075 78.12C78.1256 77.9473 78.2887 77.8029 78.6721 77.7049C78.9956 77.6223 79.224 77.5527 79.5068 77.3851C80.1403 77.0112 80.9015 76.8152 81.4589 76.3742C81.9265 76.0054 82.579 75.8275 83.1582 75.616C83.7944 75.3865 84.3245 74.7779 84.6426 74.2106C84.9091 73.7335 85.3631 73.2435 85.4501 72.7226C85.7438 70.938 87.2418 69.7157 87.7938 68.0034C87.8835 67.7248 87.9542 67.4257 88.0086 67.1162C90.8198 60.3056 89.2076 52.6749 82.9243 50.5525L82.9216 50.5499Z" fill="#B7A9B0"/>
<path d="M86.1462 8.16455C84.2158 13.2371 72.4487 22.5775 69.7 24.1609C66.9485 25.7443 60.687 28.2406 57.9328 31.3971C55.1787 34.551 43.4768 36.7352 40.0592 36.9441C36.639 37.1556 14.1515 40.2321 12.2211 40.4204C11.2831 40.5132 8.37399 40.0774 5.63069 39.608C13.1455 38.5198 38.4361 36.8049 44.6051 30.5358C51.3778 23.6529 54.257 23.64 59.3494 23.7535C59.3494 23.7535 64.5478 25.3188 70.3416 21.4893C76.1354 17.6572 86.1462 8.16455 86.1462 8.16455Z" fill="#3D2C25"/>
<path d="M81.5812 52.056C82.2936 52.0612 82.5356 52.0767 83.1174 52.5151C83.5551 52.8452 84.2375 53.1237 84.5801 53.5518C84.9064 53.9592 84.7432 54.6839 84.7432 55.1635C84.7432 55.7076 84.7514 56.2518 84.7432 56.7933C84.7378 57.0718 84.6671 57.3942 84.8466 57.6263C85.2381 58.1369 86.0537 57.6082 86.4099 57.9796C86.6165 58.1936 86.5023 58.7378 86.4996 59.0008C86.4942 59.434 86.505 59.8673 86.4996 60.3005C86.4833 61.7704 84.8765 62.8432 84.5121 64.2203C84.4306 64.5298 84.4578 64.6587 84.5285 64.9991C84.6073 65.3756 84.5094 65.5768 84.4306 65.9249C84.3245 66.3968 84.4197 66.892 84.3952 67.3716C84.3653 67.9776 84.0391 68.3851 83.808 68.9241C83.5877 69.4347 83.8488 70.002 83.4273 70.4301C83.2914 70.5694 83.1663 70.6003 83.0657 70.7782C82.9271 71.0258 83.082 71.3121 82.9597 71.5493C82.8673 71.7272 82.5927 71.9078 82.473 72.0986C82.2011 72.5241 81.9075 72.996 81.5731 73.3777C81.2631 73.7336 80.8009 73.9321 80.4774 74.2751C80.2708 74.4943 80.2545 74.7367 80.0832 74.9611C79.8385 75.2809 79.0446 75.647 78.6422 75.7115C78.3594 75.7579 78.2588 75.745 77.9924 75.8688C77.6226 76.0416 77.3671 75.9849 76.9565 76.0313C76.5324 76.0777 76.024 76.1989 75.6243 76.3614C74.882 76.6605 74.3628 76.8823 73.5308 76.872C72.9653 76.8668 72.4025 76.8668 71.837 76.8668C71.1056 76.8668 70.3824 76.9339 69.6809 76.7069C69.3084 76.5857 68.8734 76.4852 68.5363 76.2892C68.3732 76.1938 68.2563 76.0597 68.0795 75.9797C67.9001 75.8972 67.7071 75.9204 67.5385 75.8379C66.973 75.5594 67.34 74.7058 67.0002 74.27C66.6793 73.8573 65.948 73.633 65.6652 73.2049C65.2329 72.5525 66.5189 72.4648 66.75 72.0187C66.9132 71.704 66.6766 71.6886 66.489 71.4333C66.2498 71.1083 66.3313 70.9794 66.6331 70.7086C67.1551 70.2367 67.7696 69.9814 68.452 69.8318C68.7565 69.7648 68.9767 69.7235 69.2921 69.7106C69.7761 69.6874 70.048 69.445 70.521 69.3651C71.0213 69.28 71.5624 69.0762 72.0599 69.0298C72.7179 68.9705 73.3187 68.79 73.9767 68.6894C74.2187 68.6533 74.4226 68.5527 74.67 68.5347C74.9337 68.5166 75.2029 68.5579 75.4693 68.5476C76.1164 68.5218 76.7852 68.1246 77.3127 67.7842C77.6281 67.5779 77.938 67.6372 78.2588 67.4774C78.5525 67.3304 78.7509 66.9822 79.0201 66.7888C79.2784 66.6031 79.4986 66.4458 79.6672 66.1725C79.8303 65.9069 79.7759 65.7341 79.8466 65.4581C79.8983 65.2518 79.9853 65.1126 80.0098 64.896C80.0587 64.4472 80.007 63.9521 80.007 63.5034C80.007 62.8742 79.9799 62.3094 80.143 61.724C80.2273 61.4249 80.1729 61.1128 80.2545 60.806C80.3768 60.3366 80.7439 59.973 80.8635 59.5088C81.0837 58.6552 80.8852 57.5309 80.8852 56.6592C80.8852 55.9294 80.9614 55.1738 80.8037 54.4569C80.6351 53.6962 80.6052 52.7704 81.5867 52.0535L81.5812 52.056Z" fill="#9B8F96"/>
<path d="M116.173 41.8078C115.73 41.978 115.115 42.205 114.37 42.4758C112.598 42.5222 110.936 42.6305 109.852 42.9735C106.69 43.9715 92.4675 46.3027 88.7807 47.3033C87.0162 47.7804 85.5725 49.1368 83.9113 50.55C82.3371 51.8859 80.5671 53.2758 78.1419 54.0134C77.7803 54.1243 77.4051 54.2197 77.0136 54.2996C71.2198 55.4678 70.5183 55.9655 69.1671 56.7985C67.8185 57.6315 62.9518 61.7189 60.9154 64.0501C58.9388 66.3117 56.5626 68.9447 56.4157 69.1098C56.4103 69.1149 56.4049 69.1175 56.4049 69.1175C55.4886 69.8164 54.8415 70.3785 54.5914 70.7138C53.4685 72.2147 53.6942 69.3831 53.6942 69.3831C53.6942 69.3831 52.9492 69.6126 52.6474 69.3006C54.2244 67.9802 56.2798 66.1493 57.7099 64.4705C60.3336 61.3862 64.0176 52.5409 64.7218 50.5526C65.4232 48.5618 63.501 45.5652 60.9535 44.2319C58.4032 42.8987 50.5811 39.1156 45.8857 40.423C45.8177 40.4411 45.7471 40.4643 45.6736 40.4901C44.4148 40.4565 42.8026 41.0497 38.7352 41.6428C31.8865 42.6408 15.7312 42.976 12.3952 43.0611C11.362 43.0895 10.4267 43.2185 9.57029 43.3887C9.21684 43.3036 8.86067 43.221 8.50179 43.1411C8.50179 43.1411 2.91459 42.9761 0.981499 41.8104C0.628051 41.599 0.369762 41.4365 0.209351 41.3076C3.52904 41.8723 8.17009 42.4474 11.517 42.0038C17.3108 41.2328 41.473 39.5823 46.6905 37.7436C51.9052 35.9049 57.0465 33.7078 58.9986 32.6273C60.9535 31.5442 74.7325 23.867 77.3671 21.2263C79.273 19.3154 88.6312 7.10473 93.6583 0.497803C93.7154 0.709266 93.7698 0.987778 93.8242 1.3256C91.3092 5.51102 87.0978 15.0965 83.2724 18.8151C79.3437 22.6369 77.3671 28.1762 77.3671 28.1762C77.3671 28.1762 76.3258 32.3255 75.7059 33.7826C75.086 35.2396 77.1931 39.4147 79.1262 40.4901C81.0565 41.568 88.1853 42.0889 90.2407 42.1637C92.2962 42.2333 110.733 39.9949 113.895 39.7371C114.939 39.652 115.985 39.1749 116.915 38.5714L117.054 39.4792C117.054 39.4792 119.686 40.4798 116.176 41.813L116.173 41.8078Z" fill="#D2BA84"/>
<path d="M43.6835 29.4939C43.6835 29.4939 42.3675 28.9936 39.075 30.8684C35.7825 32.7432 33.9392 31.3687 36.5737 32.6169C39.2083 33.865 43.4225 34.1152 44.4746 32.6169C45.5268 31.1186 43.6835 29.4939 43.6835 29.4939Z" fill="#BC9574"/>
<path d="M60.8447 33.4293C59.8795 36.3614 57.9954 38.8345 55.5348 40.4875C51.4539 43.2365 50.0047 44.2345 46.4485 40.4875C45.0864 39.0511 43.9744 37.4858 43.2321 35.9256C42.0413 33.4164 41.8075 30.9201 43.0255 28.9963C43.5013 28.2484 44.2707 27.5857 45.1652 27.0106C46.0624 26.4355 47.0874 25.9456 48.0662 25.551C49.6187 24.9218 51.0651 24.5169 51.7285 24.3441C51.9732 24.2796 52.1118 24.2487 52.1118 24.2487C52.1118 24.2487 54.3984 23.5266 56.7175 23.5808C58.9143 23.6324 61.1411 24.3854 61.4619 27.1241C61.7229 29.3599 61.4864 31.4952 60.8447 33.4319V33.4293Z" fill="#F9E1A3"/>
<path d="M51.8916 38.8628C51.8916 38.8628 49.2326 38.5972 48.2919 39.9872C47.3512 41.3772 49.741 42.1096 50.7932 41.9858C51.8454 41.862 53.6045 38.7777 51.8916 38.8628Z" fill="#F1BFB6"/>
<path d="M65.1867 20.9504C64.2106 21.8916 62.6419 23.1682 61.0024 23.5782C60.0128 23.8258 59.0911 24.6252 58.4549 25.5561C58.0008 25.3524 57.4326 25.1693 56.7203 25.0326C56.7203 25.0326 58.9035 22.4693 61.0405 22.2501C62.8376 22.0618 64.7435 20.6203 65.1867 20.953V20.9504Z" fill="#BC9574"/>
<path d="M65.2683 21.3578C65.0589 22.6936 62.3591 26.4793 60.2439 27.3716C60.2439 27.3716 60.1487 26.3194 58.4549 25.5561C59.0911 24.6251 60.01 23.8257 61.0024 23.5781C62.6419 23.1707 64.2106 21.8916 65.1867 20.9503C65.271 21.0148 65.3009 21.1437 65.2683 21.3578Z" fill="#A07A60"/>
<path d="M46.318 38.2387C45.38 38.2387 44.1103 36.9647 43.2348 35.9255C42.044 33.4163 41.8102 30.92 43.0282 28.9962C43.504 28.2483 44.2734 27.5856 45.1679 27.0105C44.7248 28.1787 44.3795 29.677 44.2707 31.5441C43.9336 37.3387 47.9004 38.2412 46.3207 38.2412L46.318 38.2387Z" fill="#3D2C25"/>
<path d="M51.7285 24.3414C51.7421 25.6669 51.9786 27.7274 51.3206 28.6197C50.399 29.8678 49.8715 34.6154 48.9498 33.651C48.0281 32.6839 47.1065 29.2463 47.237 28.3721C47.3049 27.9208 47.7644 26.6624 48.0662 25.5483C49.6187 24.9191 51.0651 24.5142 51.7285 24.3414Z" fill="#3D2C25"/>
<path d="M60.8447 33.4292C60.8094 32.6916 60.8447 32.034 60.9507 31.5415C61.7501 27.9389 59.6511 26.3452 59.4853 27.3715C59.3194 28.3953 57.1145 33.8676 55.1406 35.9925C53.164 38.1149 53.9552 36.2401 54.3494 34.7444C54.7437 33.2435 54.4827 26.8738 55.6653 25.5586C56.2336 24.9268 56.5626 24.1996 56.7175 23.5833C58.9143 23.6348 61.1411 24.3878 61.4619 27.1265C61.7229 29.3624 61.4864 31.4976 60.8447 33.4343V33.4292Z" fill="#3D2C25"/>
<path d="M56.3458 34.6201C58.0695 34.3547 59.2401 32.8141 58.9603 31.1791C58.6805 29.5441 57.0563 28.4339 55.3325 28.6993C53.6087 28.9647 52.4382 30.5052 52.718 32.1402C52.9978 33.7752 54.622 34.8855 56.3458 34.6201Z" fill="#231F20"/>
<path d="M44.4529 38.6204C46.1992 38.6204 47.6149 37.2776 47.6149 35.6212C47.6149 33.9648 46.1992 32.6221 44.4529 32.6221C42.7066 32.6221 41.2909 33.9648 41.2909 35.6212C41.2909 37.2776 42.7066 38.6204 44.4529 38.6204Z" fill="#231F20"/>
<path d="M57.9138 30.2625C57.9138 29.6358 57.3782 29.1278 56.7175 29.1278C56.0569 29.1278 55.5212 29.6358 55.5212 30.2625C55.5212 30.8891 56.0569 31.3972 56.7175 31.3972C57.3782 31.3972 57.9138 30.8891 57.9138 30.2625Z" fill="white"/>
<path d="M45.9917 34.3705C45.9917 33.7439 45.4561 33.2358 44.7955 33.2358C44.1348 33.2358 43.5992 33.7439 43.5992 34.3705C43.5992 34.9972 44.1348 35.5052 44.7955 35.5052C45.4561 35.5052 45.9917 34.9972 45.9917 34.3705Z" fill="white"/>
</g>
<defs>
<clipPath id="clip0_15_8074">
<rect width="118" height="80" fill="white"/>
</clipPath>
</defs>
</svg>
