<svg width="120" height="83" viewBox="0 0 120 83" fill="none" xmlns="http://www.w3.org/2000/svg">
<g clip-path="url(#clip0_15_8080)">
<path d="M23.5771 58.1128C23.6872 57.087 23.1979 56.068 23.1979 56.068C24.5597 55.7444 27.6401 52.475 30.5573 50.0295C33.4725 47.5874 34.0556 45.945 34.0576 45.9416C34.5469 43.7649 34.712 41.4957 34.712 41.4957C35.4072 38.8053 32.1291 36.5241 28.7042 36.495C27.7583 36.6577 26.1825 37.3102 26.315 39.8825C26.5046 43.5354 27.4342 47.4658 25.7809 49.8736C24.1255 52.2832 19.5875 54.8915 20.3785 59.6936C20.3887 59.7621 20.3826 59.8237 20.3867 59.8905C20.6069 60.12 20.8454 60.3238 21.0941 60.5036C21.1858 60.4351 21.2409 60.3957 21.2409 60.3957C23.9848 60.5413 23.465 59.1387 23.5751 58.1128H23.5771Z" fill="#A97C50"/>
<path d="M25.7829 49.8736C27.4362 47.4657 26.5066 43.5354 26.317 39.8824C26.1825 37.3119 27.7603 36.6577 28.7063 36.495C28.4086 36.4932 28.111 36.5018 27.8133 36.5326C24.0949 36.9437 26.2232 42.9651 25.577 47.3184C24.9307 51.6718 22.3947 51.766 20.0014 55.299C18.7354 57.1692 19.3307 58.7961 20.3887 59.8887C20.3846 59.8237 20.3887 59.7603 20.3806 59.6918C19.5896 54.888 24.1275 52.2798 25.7829 49.8719V49.8736Z" fill="#A97C50"/>
<path d="M23.3264 61.3085C25.6483 60.9642 24.5556 57.6949 24.9328 56.5835C25.312 55.472 31.2973 51.1957 32.7916 49.2502C33.3523 48.5207 33.7641 47.2482 34.0576 45.9415C34.0576 45.945 33.4725 47.5873 30.5573 50.0294C27.6401 52.475 24.5618 55.7443 23.1979 56.068C23.1979 56.068 23.6872 57.087 23.5771 58.1128C23.467 59.1386 23.9869 60.5412 21.2429 60.3957C21.2429 60.3957 21.1879 60.4351 21.0961 60.5036C21.9075 61.0841 22.7963 61.3873 23.3264 61.3085Z" fill="#7F5E3D"/>
<path d="M37.5518 81.4176C40.4752 80.1057 46.2383 80.2496 49.335 80.2496C52.4317 80.2496 59.312 80.8986 60.0866 78.5507C60.8613 76.2028 58.1092 64.7867 57.2489 63.9904C56.3886 63.1957 53.1411 62.7762 56.0135 61.901C58.8839 61.0276 66.4532 59.8871 69.4887 55.3265C69.6437 54.9857 69.7782 54.6226 69.8924 54.2338C71.7842 47.8031 64.3881 40.5041 56.0441 40.6497C56.0441 40.6497 54.0707 40.5332 51.7548 41.1189C51.7446 41.1241 45.637 44.813 45.637 49.0156C45.637 53.2183 46.7541 59.2928 49.8508 64.7114C52.9474 70.1317 55.5283 75.2608 55.1838 76.4168C54.8393 77.5728 53.6365 77.977 49.7651 77.667C45.8999 77.357 35.8149 75.2249 32.3819 80.0646C32.2208 80.5989 32.2249 81.0476 32.3493 81.4193C32.4247 81.4604 34.6733 82.7054 37.5498 81.4158L37.5518 81.4176Z" fill="#A97C50"/>
<path d="M35.1422 82.9966C36.347 82.9247 39.4436 81.4793 43.0561 81.4793C46.6685 81.4793 55.9585 80.4671 59.0551 80.9741C62.1518 81.4793 63.7867 80.2942 62.9264 77.6722C62.0661 75.0503 58.1948 64.5727 59.2284 62.5485C60.1988 60.6475 67.0913 60.6595 69.4908 55.3317C66.4553 59.8905 58.8859 61.0311 56.0155 61.9062C53.1452 62.7797 56.3906 63.201 57.2509 63.9956C58.1112 64.7902 60.8634 76.208 60.0887 78.5559C59.314 80.9039 52.4337 80.2548 49.337 80.2548C46.2404 80.2548 40.4772 80.1109 37.5539 81.4228C34.6774 82.7123 32.4267 81.469 32.3533 81.4262C32.759 82.6438 34.3736 83.0463 35.1462 83L35.1422 82.9966Z" fill="#7F5E3D"/>
<path d="M49.7651 77.6704C53.6365 77.9804 54.8393 77.5762 55.1838 76.4202C55.5283 75.2642 52.9474 70.1334 49.8508 64.7148C46.7541 59.2962 45.6369 53.2251 45.6369 49.019C45.6369 44.8129 51.7467 41.1275 51.7548 41.1223C48.6419 41.9084 44.9132 43.9635 44.5177 49.2879C43.8287 58.5735 53.7771 71.8699 53.8791 74.759C53.979 77.6498 50.8843 76.7816 46.2383 76.6377C41.5923 76.4939 35.6579 75.0467 33.1647 78.5524C32.759 79.1244 32.5164 79.6227 32.3819 80.068C35.8149 75.23 45.8979 77.3604 49.7651 77.6704Z" fill="#A97C50"/>
<path d="M22.3417 6.73897C24.4639 5.24903 28.2353 2.27771 29.0202 0.369902C28.3658 -0.340817 24.0297 -0.102769 20.9677 1.7314C18.7619 3.0518 17.3655 5.87583 16.6581 7.68774C18.3542 7.76309 20.9738 7.69973 22.3417 6.73897Z" fill="#A97C50"/>
<path d="M23.7769 7.99255C26.7023 5.92204 28.9162 1.62005 29.1099 0.621622C29.1283 0.52743 29.0875 0.445226 29.0182 0.369873C28.2333 2.27768 24.4619 5.249 22.3397 6.73894C20.9718 7.70141 18.3521 7.76478 16.656 7.68771C16.2768 8.65532 16.0934 9.34035 16.0934 9.34035C15.8059 13.0018 20.8535 10.0631 23.7769 7.99084V7.99255Z" fill="#A97C50"/>
<path d="M11.3332 20.9516C18.4439 20.7581 23.9481 19.6295 23.0308 20.9653C22.1134 22.3011 21.1675 23.6489 23.1307 29.2371C25.0959 34.8252 26.7573 39.641 30.6287 41.3758C34.5 43.1107 34.6712 43.8334 36.2186 43.1107C36.2186 43.1107 39.5721 48.531 43.4434 48.8187C47.3147 49.1081 49.3778 47.5908 51.4429 44.9893C51.4429 44.9893 57.2917 51.4201 62.1089 53.0111C66.9262 54.6003 76.0429 54.239 76.0429 54.239C76.0429 54.239 73.2907 60.0926 77.5902 64.2832C81.8917 68.4739 92.7636 79.7529 119.068 78.4497C119.696 78.2133 119.602 77.9359 118.996 77.6533C99.1363 78.0866 95.0509 71.4384 87.7099 65.0796C80.3709 58.7208 76.471 42.5352 70.9667 36.9471C65.4625 31.359 54.2216 28.6616 44.5891 28.2763C34.9546 27.891 34.4959 27.1203 28.9917 19.0267C23.4874 10.9331 19.8179 10.5477 14.7703 10.5477C9.72269 10.5477 1.66609 16.4989 1.66609 16.4989C0.928111 17.3227 0.514273 18.2269 0.991308 19.2236C0.991308 19.2236 4.22047 21.1434 11.3312 20.9516H11.3332Z" fill="#A97C50"/>
<path d="M14.7744 10.546C19.8199 10.546 23.4894 10.9313 28.9957 19.025C34.502 27.1186 34.9607 27.8893 44.5932 28.2746C54.2256 28.6599 65.4665 31.3572 70.9708 36.9454C76.4751 42.5335 80.3749 58.719 87.7139 65.0778C95.053 71.4366 99.1404 78.0849 119.001 77.6516C117.663 77.0265 113.837 76.374 109.735 76.0606C102.166 75.4817 95.2854 69.8936 89.092 63.343C82.8987 56.7924 80.8336 42.1465 74.1837 34.6317C67.5317 27.1169 50.0995 25.5756 44.1365 25.5756C38.1736 25.5756 35.4194 24.6131 32.8977 22.594C30.3759 20.5766 30.6042 13.8222 22.3458 9.77534C14.0894 5.72852 6.51799 11.702 5.14396 13.4368C4.45491 14.3051 2.73025 15.3189 1.67017 16.5006C1.67017 16.5006 9.72677 10.546 14.7744 10.546Z" fill="#A97C50"/>
<path d="M18.2135 22.2994C20.2766 24.4196 21.196 30.7784 22.5721 35.5959C23.9481 40.4133 28.9937 46.0015 36.7934 52.9374C44.5911 59.8733 54.6843 61.031 60.1458 61.6082C65.6072 62.1853 67.5317 63.7266 82.2097 72.2056C96.8897 80.6846 107.442 79.5286 115.698 78.9497C117.451 78.8264 118.528 78.6517 119.07 78.4462C92.7677 79.7512 81.8937 68.4705 77.5922 64.2798C73.2907 60.0891 76.0449 54.2355 76.0449 54.2355C76.0449 54.2355 66.9262 54.5969 62.111 53.0076C57.2937 51.4184 51.445 44.9859 51.445 44.9859C49.3798 47.5873 47.3168 49.1047 43.4454 48.8152C39.5741 48.5258 36.2206 43.1072 36.2206 43.1072C34.6712 43.8299 34.5 43.1072 30.6307 41.3724C26.7594 39.6393 25.0959 34.8218 23.1327 29.2336C21.1695 23.6455 22.1154 22.296 23.0328 20.9619C23.9502 19.6261 18.4459 20.7547 11.3352 20.9482C4.22455 21.1417 0.995384 19.2202 0.995384 19.2202C1.20332 19.6501 1.57435 20.0971 2.16147 20.5629C6.06134 23.6455 18.2176 22.2977 18.2176 22.2977L18.2135 22.2994Z" fill="#7F5E3D"/>
<path d="M24.9817 3.46449C23.204 4.23515 21.3693 6.06589 20.3948 7.56268C19.4652 8.99097 18.1585 11.1899 18.0382 11.392C17.9505 12.2586 18.4908 13.221 21.5405 13.1457C25.4404 13.0498 33.1239 6.97869 34.9587 3.41482C35.2624 2.82227 35.2787 2.37529 35.083 2.03963C31.5359 1.04976 26.7594 2.69212 24.9817 3.46278V3.46449Z" fill="#A97C50"/>
<path d="M24.4068 2.83778C20.507 4.28319 18.2156 10.7139 18.2156 10.7139C18.134 10.916 18.0627 11.1506 18.0382 11.3938C18.1585 11.19 19.4652 8.99106 20.3948 7.56449C21.3693 6.06598 23.2061 4.23695 24.9817 3.46629C26.7594 2.69563 31.5359 1.05327 35.083 2.04314C34.0984 0.364816 27.6584 1.63384 24.4068 2.83949V2.83778Z" fill="#A97C50"/>
<path d="M3.30513 17.0487C3.30513 17.0487 2.38776 18.4701 1.49892 18.4462C0.610087 18.4222 0.379723 17.3861 0.553006 16.8809C0.724249 16.3757 1.44184 16.0383 2.4163 16.2541C3.39076 16.4716 3.53346 16.7336 3.30513 17.0487Z" fill="#231F20"/>
<path d="M0.787447 17.3158C0.787447 17.3158 0.765022 16.528 1.49892 16.3739C2.23282 16.2198 3.10331 16.6428 3.10331 16.8449C3.10331 17.047 2.13905 16.2832 0.785408 17.3158H0.787447Z" fill="#414042"/>
<path d="M23.2774 8.39501C21.1736 10.9142 23.2713 12.0137 23.2774 12.0154C24.627 11.4211 26.2375 10.4638 27.8052 9.42426C31.4421 7.01296 33.9679 4.00567 34.5 2.93018C27.5035 3.55184 25.3833 5.87238 23.2774 8.39501Z" fill="#FAC2B8"/>
<path d="M25.0531 4.96815C19.9239 8.86598 20.036 11.8013 20.036 11.8013C20.1767 12.9488 21.4977 12.7998 23.2774 12.0154C23.2713 12.012 21.1756 10.9142 23.2774 8.39502C25.3833 5.87239 27.5035 3.55357 34.5 2.93019C35.0321 1.85469 27.85 2.84456 25.0531 4.96815Z" fill="#F7A29E"/>
<path d="M17.1249 14.7641C17.1249 13.3547 15.7631 12.2124 14.0853 12.2124C12.4075 12.2124 11.0458 13.3547 11.0458 14.7641C11.0458 16.1736 12.4075 17.3176 14.0853 17.3176C15.7631 17.3176 17.1249 16.1736 17.1249 14.7641Z" fill="#231F20"/>
<path d="M15.4043 14.6459C15.4043 13.7948 14.5827 13.1046 13.5696 13.1046C12.5564 13.1046 11.7348 13.7948 11.7348 14.6459C11.7348 15.4971 12.5564 16.1873 13.5696 16.1873C14.5827 16.1873 15.4043 15.4971 15.4043 14.6459Z" fill="#231F20"/>
<path d="M15.4043 13.3632C15.4043 13.0567 15.1087 12.8101 14.7458 12.8101C14.383 12.8101 14.0853 13.0584 14.0853 13.3632C14.0853 13.6681 14.3809 13.9164 14.7458 13.9164C15.1107 13.9164 15.4043 13.6681 15.4043 13.3632Z" fill="white"/>
<path d="M30.7143 58.6694C30.486 57.6572 29.6828 56.7907 29.6828 56.7907C30.8876 56.1639 32.7794 52.3106 34.7854 49.2879C36.7894 46.2686 36.8138 44.5526 36.8138 44.5492C36.5733 42.3434 35.9902 40.1222 35.9902 40.1222C35.7803 37.3735 31.8804 35.9383 28.5799 36.7004C27.7237 37.0755 26.421 38.0671 27.3893 40.5092C28.7654 43.9772 30.9447 47.5427 30.1414 50.2401C29.3382 52.9374 25.8277 56.4927 28.1558 60.9282C28.1885 60.9916 28.2027 61.0533 28.2272 61.1149C28.5146 61.2845 28.8102 61.4266 29.1079 61.5413C29.1731 61.454 29.2139 61.4043 29.2139 61.4043C31.9008 60.9111 30.9426 59.6815 30.7123 58.6711L30.7143 58.6694Z" fill="#A97C50"/>
<path d="M30.1414 50.2384C30.9447 47.5411 28.7654 43.9755 27.3893 40.5075C26.421 38.0654 27.7237 37.0738 28.5799 36.6987C28.2924 36.7655 28.0091 36.8426 27.7338 36.9419C24.2927 38.1938 28.3067 43.4942 29.1099 47.8288C29.9131 52.165 27.5035 52.838 26.3578 56.789C25.7503 58.8783 26.8572 60.3066 28.2292 61.1132C28.2048 61.0516 28.1905 60.9899 28.1579 60.9265C25.8277 56.4893 29.3403 52.9357 30.1435 50.2384H30.1414Z" fill="#A97C50"/>
<path d="M31.5175 61.8C33.6377 60.9334 31.5175 58.0426 31.5175 56.8866C31.5175 55.7306 35.8761 50.2384 36.6793 48.0223C36.981 47.1917 36.9586 45.8713 36.8138 44.5492C36.8138 44.5526 36.7894 46.2669 34.7854 49.2879C32.7794 52.3106 30.8876 56.1656 29.6828 56.7907C29.6828 56.7907 30.486 57.6572 30.7143 58.6694C30.9426 59.6815 31.9028 60.9094 29.2159 61.4027C29.2159 61.4027 29.1751 61.4523 29.1099 61.5397C30.0783 61.9096 31.0344 61.9969 31.5175 61.8Z" fill="#7F5E3D"/>
<path d="M43.7023 81.4176C46.6257 80.1057 52.3909 80.2496 55.4855 80.2496C58.5801 80.2496 65.4645 80.8986 66.2371 78.5507C67.0118 76.2028 64.2597 64.7867 63.3994 63.9904C62.5391 63.1957 59.2916 62.7762 62.164 61.901C65.0344 61.0276 72.6058 59.8871 75.6392 55.3265C75.7921 54.9857 75.9287 54.6226 76.0429 54.2338C77.9347 47.8031 70.5366 40.5041 62.1946 40.6497C62.1946 40.6497 60.2212 40.5332 57.9053 41.1189C57.8951 41.1241 51.7874 44.813 51.7874 49.0156C51.7874 53.2183 52.9066 59.2928 56.0033 64.7114C59.1 70.1317 61.6808 75.2608 61.3363 76.4168C60.9918 77.5728 59.789 77.977 55.9177 77.667C52.0525 77.357 41.9654 75.2249 38.5344 80.0646C38.3734 80.5989 38.3774 81.0476 38.5018 81.4193C38.5772 81.4604 40.8258 82.7054 43.7023 81.4158V81.4176Z" fill="#A97C50"/>
<path d="M41.2947 82.9966C42.4995 82.9247 45.5941 81.4793 49.2086 81.4793C52.8231 81.4793 62.111 80.4671 65.2076 80.9741C68.3043 81.4793 69.9393 80.2942 69.079 77.6722C68.2187 75.0503 64.3474 64.5727 65.3809 62.5485C66.3513 60.6475 73.2439 60.6595 75.6413 55.3317C72.6058 59.8905 65.0364 61.0311 62.166 61.9062C59.2957 62.7797 62.5432 63.201 63.4014 63.9956C64.2617 64.7902 67.0139 76.208 66.2392 78.5559C65.4645 80.9039 58.5842 80.2548 55.4875 80.2548C52.3909 80.2548 46.6277 80.1109 43.7043 81.4228C40.8279 82.7123 38.5772 81.469 38.5038 81.4262C38.9095 82.6438 40.5241 83.0463 41.2967 83L41.2947 82.9966Z" fill="#7F5E3D"/>
<path d="M55.9177 77.6704C59.789 77.9804 60.9918 77.5762 61.3363 76.4202C61.6808 75.2642 59.1 70.1334 56.0033 64.7148C52.9066 59.2962 51.7874 53.2251 51.7874 49.019C51.7874 44.8129 57.8972 41.1275 57.9053 41.1223C54.7924 41.9084 51.0637 43.9635 50.6682 49.2879C49.9792 58.5735 59.9276 71.8699 60.0296 74.759C60.1295 77.6498 57.0328 76.7816 52.3888 76.6377C47.7449 76.4939 41.8084 75.0467 39.3152 78.5524C38.9075 79.1244 38.6669 79.6227 38.5324 80.068C41.9634 75.23 52.0504 77.3604 55.9156 77.6704H55.9177Z" fill="#A97C50"/>
</g>
<defs>
<clipPath id="clip0_15_8080">
<rect width="119" height="83" fill="white" transform="translate(0.5)"/>
</clipPath>
</defs>
</svg>
