<svg width="131" height="85" viewBox="0 0 131 85" fill="none" xmlns="http://www.w3.org/2000/svg">
<g clip-path="url(#clip0_15_8092)">
<path d="M130.534 70.0521C130.075 69.9632 128.744 69.8334 126.793 69.6752C123.912 69.4352 119.682 69.1347 114.919 68.82H114.869C103.28 68.0536 88.5444 67.218 82.2946 67.0526C80.8696 67.0117 79.8854 67.0117 79.4817 67.0526C76.0753 67.3958 69.5891 65.5324 69.5891 65.5324C69.5891 65.5324 59.0403 63.8006 53.1556 63.6282C52.382 63.6068 51.5521 63.4912 50.6901 63.2921C45.016 62.0386 37.7321 57.4851 32.0403 54.2455C25.4866 50.5135 20.9464 41.8848 21.1008 43.9401C21.2487 45.9938 21.416 47.706 21.416 47.706C21.416 47.706 22.4324 50.5615 23.6274 54.4927C24.023 55.8013 24.4444 57.2255 24.8545 58.7119C19.2174 54.6776 15.0182 50.1863 12.8438 47.0232C8.91636 41.3193 11.8097 34.9238 10.3654 32.6426C8.91636 30.3614 3.75696 22.2341 3.75696 22.2341C2.10364 11.141 23.1626 13.4684 25.8147 21.2686C25.9883 21.7754 26.236 22.2679 26.5512 22.7479V22.755C27.0772 23.5569 27.7961 24.3233 28.6629 25.0558C29.4253 25.7066 30.305 26.3289 31.2764 26.9387H31.4244C31.9133 26.9245 32.4151 26.9387 32.9056 26.9387C33.2337 26.9387 33.6679 26.8356 33.9767 26.9458C34.3611 27.0899 34.6265 27.6375 34.6216 28.0286C34.6023 28.7825 35.006 28.7683 35.5577 28.939C35.9485 29.0688 36.3747 28.9799 36.7719 29.0972C36.9826 29.1595 37.0389 29.3515 37.2303 29.4333C37.3541 29.4884 37.5648 29.4742 37.6951 29.4546C38.1293 29.3853 38.5185 29.3035 38.9592 29.2839C39.1393 29.5986 38.718 30.2156 39.0766 30.4681C39.268 30.6121 39.7762 30.4681 40.0126 30.4752C40.2732 30.4823 40.5707 30.4485 40.7927 30.6672C40.9294 30.8041 40.9101 31.0779 41.0902 31.1597C41.251 31.2344 41.6048 30.9819 41.7528 30.9535C41.9394 30.9126 42.1613 30.8984 42.3414 30.9535C42.7001 31.0637 43.0973 31.4051 43.2775 31.7554C43.4688 32.1394 43.4447 32.447 43.8838 32.543C44.1315 32.5982 44.3663 32.4541 44.6268 32.5768C44.8069 32.6586 44.942 32.7955 45.1157 32.872C45.5982 33.0907 46.1499 33.1938 46.6645 33.2205C47.34 33.2614 48.0332 33.2276 48.7087 33.2134C49.2603 33.192 49.3584 33.4729 49.6382 33.9263C49.7251 34.0561 49.8425 34.1664 49.9293 34.2962C50.1336 34.5967 50.1899 34.8776 50.5485 34.9398C50.8589 34.9878 51.2481 34.9469 51.5585 34.9327C51.8866 34.9185 52.1472 34.5077 52.4142 34.8509C52.6377 35.1318 52.7181 35.5977 52.8725 35.9266C52.9658 36.1186 53.0462 36.3107 53.1443 36.46C53.466 36.5969 53.7941 36.7338 54.1109 36.8636C54.2154 36.8636 54.3152 36.8778 54.4454 36.9454C54.5387 36.9863 54.6063 37.0557 54.6802 37.109C54.7735 37.1499 54.8668 37.1908 54.9585 37.2246C55.1257 37.2459 55.3364 37.2103 55.5037 37.2103C55.7015 37.2032 55.9315 37.2441 56.1293 37.2175C56.5249 37.1481 56.8289 36.9365 57.0653 37.4237C57.202 37.6904 57.2133 37.9998 57.3564 38.2665C57.3629 38.2878 57.3806 38.3074 57.387 38.3216C58.204 38.7128 58.9856 39.095 59.7094 39.4933L60.1179 39.7191C60.3848 39.7191 60.6502 39.7262 60.9172 39.7191C61.1214 39.7191 61.3627 39.6569 61.5492 39.7529C61.9079 39.9307 61.9883 40.5672 62.1379 40.93C62.7764 41.3407 63.3891 41.7585 63.9954 42.1906C64.256 42.0803 64.4779 41.9096 64.8012 41.9914C65.2789 42.107 65.3963 42.7453 65.6182 43.1685C65.6793 43.2983 65.7485 43.4352 65.8225 43.5721C72.841 49.1604 77.4118 55.9453 79.5299 57.7536C82.2174 60.0348 104.101 62.9987 112.358 64.8283C117.592 65.9858 124.734 67.7727 128.469 68.9231C130.637 69.5934 131.664 70.0521 130.53 70.0521H130.534Z" fill="#C09367"/>
<path d="M130.534 70.0522H93.5735C86.14 70.0522 80.7699 68.251 77.4681 69.3943C74.1663 70.5305 54.55 70.5305 40.9229 66.6544C34.8468 64.9279 29.3899 61.964 24.8561 58.7102C24.4476 57.2238 24.0262 55.7996 23.629 54.4909C22.434 50.5597 21.4176 47.7042 21.4176 47.7042C21.4176 47.7042 21.2503 45.992 21.1024 43.9384C20.948 41.8848 25.4882 50.5117 32.0419 54.2438C37.7337 57.4833 45.0192 62.0369 50.6917 63.2904C51.5521 63.4895 52.382 63.6051 53.1572 63.6264C59.0419 63.7971 69.5907 65.5307 69.5907 65.5307C69.5907 65.5307 76.0753 67.394 79.4833 67.0509C79.8853 67.01 80.8712 67.01 82.2962 67.0509C88.546 67.2144 103.281 68.0501 114.87 68.8182H114.92C119.684 69.1329 123.914 69.4352 126.794 69.6734C128.745 69.8317 130.077 69.9615 130.535 70.0504L130.534 70.0522Z" fill="#FEDEBB"/>
<path opacity="0.3" d="M129.25 70.0522H93.5719C86.1384 70.0522 80.7683 68.2511 77.4665 69.3943C74.1647 70.5305 54.5483 70.5305 40.9213 66.6544C34.8452 64.928 29.3883 61.964 24.8545 58.7102C19.2174 54.6759 15.0182 50.1846 12.8438 47.0215C8.91636 41.3176 11.8097 34.9221 10.3654 32.6409C8.91636 30.3597 3.75696 22.2324 3.75696 22.2324C2.10364 11.1393 23.1626 13.4667 25.8146 21.2669C26.273 22.6164 27.2702 23.8753 28.6645 25.0541L25.3257 26.1369V30.4575L19.8061 30.9429L17.6944 33.3254H15.216C15.216 33.3254 13.6672 38.2008 15.216 42.3507C16.7648 46.5077 20.4317 53.5735 23.6274 54.491C26.8295 55.4084 32.0387 54.2438 32.0387 54.2438C32.0387 54.2438 36.431 59.5174 43.3981 63.2833C46.9106 65.1804 49.2394 64.4674 50.6885 63.2904C52.1198 62.1471 52.6892 60.5451 52.6892 60.5451L66.0444 63.2851C66.0444 63.2851 73.4345 65.4827 82.2913 67.0509C87.2288 67.9275 92.623 68.5978 97.4414 68.5925C102.757 68.5782 109.011 68.6067 114.866 68.8183H114.915C119.282 68.9818 123.427 69.2432 126.789 69.6735C127.663 69.7891 128.486 69.9135 129.249 70.0504L129.25 70.0522Z" fill="#332A21"/>
<path d="M40.9647 36.1169C40.7975 35.628 40.6093 35.2208 40.6125 34.6963C40.6157 34.2144 40.582 34.1807 40.1477 34.1824C39.6154 34.186 39.0444 34.474 38.5346 34.7158C38.3223 34.8172 38.1245 34.9577 37.9074 35.0572C37.6034 35.1995 37.33 35.2101 37.0502 35.379L36.7398 36.2343C37.0502 36.3072 36.9456 36.5401 37.0807 36.7535C37.1885 36.9224 37.4201 37.1375 37.5729 37.2691C37.8752 37.5287 38.3143 37.8718 38.6761 38.039C39.6395 38.4835 40.7428 38.0834 41.6724 38.4355C41.4456 37.7065 41.2269 36.885 40.9647 36.1169Z" fill="#786046"/>
<path d="M49.7187 40.5495C49.746 41.0171 50.3218 41.4047 50.6788 41.5061C51.6132 41.7692 52.5718 41.8848 53.5416 41.8866C53.8005 41.8866 54.5162 42.0217 54.6995 41.803C54.8668 41.6038 54.5853 40.8304 54.5323 40.5886C54.41 40.0374 54.2894 39.4951 54.0819 38.9742C53.9726 38.7003 53.8037 38.4016 54.0819 38.1936C53.63 38.3732 53.1218 38.3074 52.6538 38.4532C52.1729 38.6043 51.692 38.7466 51.2079 38.8906C50.8059 39.0115 50.4456 39.1253 50.0741 39.3262C49.902 39.4187 49.5562 39.488 49.4388 39.6605L49.5932 40.5157C49.635 40.5264 49.6768 40.537 49.7187 40.5495Z" fill="#786046"/>
<path d="M34.1231 38.775C33.6551 38.1527 33.1066 37.5749 32.5566 37.0432C32.3041 36.7996 31.7557 36.1382 31.3568 36.4298C31.2668 36.4956 31.1381 36.8334 31.0545 36.9597C30.921 37.1606 30.736 37.3526 30.6862 37.6069C30.625 37.9162 30.646 38.7235 30.7698 38.9777C31.0464 39.5467 31.7991 40.0481 32.2784 40.3486C32.5872 40.5441 32.7641 40.7575 33.0182 40.9922C33.1324 41.0989 33.3463 41.1789 33.4894 41.1985L34.419 40.8553C34.3515 40.5904 34.5284 40.6046 34.5605 40.4126C34.5879 40.249 34.6088 39.9965 34.5814 39.8276C34.5171 39.4329 34.3515 39.0737 34.1231 38.7715V38.775Z" fill="#786046"/>
<path d="M46.256 46.6891C46.4924 46.5415 46.716 46.3601 46.962 46.2143C47.2145 46.0632 47.8144 45.6596 47.8707 45.3182C47.9431 44.879 47.3834 44.4985 47.1309 44.2869C46.7144 43.9385 46.2978 43.5615 45.8555 43.2521C44.8134 42.5249 43.6506 42.0342 42.4025 42.244C41.8139 42.3436 41.1272 42.2511 40.8779 42.9392C40.7669 43.245 40.6206 44.2621 40.7959 44.5874C40.9808 44.9306 41.5888 45.3413 41.9024 45.5245C42.3479 45.784 42.9092 46.0294 43.4077 46.1308C43.6377 46.177 43.9481 46.081 44.154 46.1948C44.162 46.2428 44.1684 46.289 44.1765 46.337L45.5709 47.0215C45.833 46.8953 46.0341 46.8295 46.2592 46.6873L46.256 46.6891Z" fill="#786046"/>
<path d="M26.0704 29.8689C25.485 29.3711 24.8851 28.6616 24.1002 28.955C23.6644 29.1186 23.3315 29.3817 23.2575 29.9116C23.2221 30.1659 23.1899 30.8468 23.2816 31.0958C23.4183 31.4709 23.9732 31.6541 24.2498 31.8763C24.4942 32.0754 24.721 32.2906 24.9767 32.4719C25.2936 32.6978 25.6024 32.8987 25.9015 33.1529L26.5207 32.9822C26.7909 32.8293 27.0353 32.8364 27.2557 32.5964C27.5725 32.2497 27.4664 31.9065 27.2975 31.4834C27.0112 30.765 26.6413 30.3525 26.0704 29.8671V29.8689Z" fill="#786046"/>
<path d="M57.358 49.1071C56.8691 48.5452 55.9701 48.5595 55.3235 48.5595C54.7446 48.5595 53.8632 48.5115 53.5126 49.1871C53.2714 49.6529 53.5126 50.4957 53.7587 50.9153C53.9485 51.2389 54.3634 51.6034 54.6609 51.8221C54.9697 52.0515 55.2769 51.9857 55.6323 51.9857L56.2515 52.3289C56.3995 52.0942 56.57 52.1795 56.7774 52.1617C57.1168 52.1333 57.3757 52.0568 57.6942 51.9413C58.1799 51.767 58.3536 51.6888 58.1799 51.1127C57.9804 50.4495 57.81 49.6281 57.3564 49.1071H57.358Z" fill="#786046"/>
<path d="M25.4335 23.4307C24.8995 23.1107 24.4749 22.8582 23.8751 22.876C23.5486 22.8849 23.4569 22.8902 23.2671 23.1409C23.132 23.3205 22.8924 23.7632 22.8248 23.9873C22.6721 24.4904 22.8377 25.2532 23.1352 25.655C23.6805 26.3911 24.6663 27.5273 25.5927 27.506L26.9871 27.3353C26.9951 27.2873 27.0048 27.241 27.0128 27.193C27.4889 27.1219 27.595 27.1379 27.6079 26.5743C27.6192 26.048 27.5822 25.3901 27.3104 24.9296C26.9195 24.27 26.035 23.7935 25.4335 23.4325V23.4307Z" fill="#786046"/>
<path d="M62.5737 47.6723C62.7024 47.354 62.3116 46.5664 62.1829 46.3015C61.9224 45.7645 61.7245 44.9395 61.2147 44.5999C60.7145 44.2656 59.7335 44.4185 59.1899 44.4665C58.8827 44.4932 57.7408 44.5288 57.6909 45.1226C57.6716 45.3609 58.2345 46.0828 58.2973 46.1699C58.5305 46.4864 58.7991 46.778 59.0676 47.0571C59.2349 47.2296 59.727 47.9621 59.9683 47.5336L60.7419 48.3889C61.1713 48.3977 62.3807 48.147 62.5721 47.6705L62.5737 47.6723Z" fill="#786046"/>
<path d="M48.0525 53.9256C47.8257 53.7798 47.3673 53.8278 47.1229 53.8954C46.7176 54.0056 46.2657 54.3007 45.8974 54.5159C45.6497 54.6599 45.4615 54.7221 45.5709 55.0973C45.7076 55.348 45.8893 55.5542 46.1145 55.7125C46.2834 55.853 46.412 56.029 46.5037 56.2388C46.6806 56.4237 46.8382 56.5642 47.0891 56.5873C47.0988 56.5375 47.1068 56.4859 47.1148 56.4361L48.0444 56.2655C48.2728 56.269 48.7778 56.3632 48.9274 56.1054C49.1027 55.8014 48.7939 55.4369 48.6668 55.1613C48.5253 54.8502 48.3404 54.1123 48.0525 53.9256Z" fill="#786046"/>
<path d="M64.9363 55.1471C64.5181 54.6439 63.6239 54.7168 63.0868 54.715C62.4724 54.715 60.9574 54.5657 60.7644 55.588C60.6502 56.1872 61.5734 57.3963 62.1363 57.4656L63.685 58.3209C63.6931 58.3689 63.7027 58.4151 63.7108 58.4631C64.2222 58.6658 65.2161 58.3671 65.4719 57.8088C65.6391 57.4461 65.5217 57.0016 65.4333 56.6122C65.3335 56.1766 65.2145 55.4814 64.9347 55.1453L64.9363 55.1471Z" fill="#786046"/>
<path d="M70.7519 51.143C70.5653 50.7465 70.345 50.4727 70.0699 50.1349C69.9381 49.9713 69.7322 49.5677 69.5553 49.4663C69.2771 49.3063 68.9892 49.4094 68.7624 49.6121C68.2124 50.1029 67.5884 50.9723 68.0081 51.7298C68.341 52.3289 69.0905 52.8588 69.7258 52.8428L70.6554 53.0135C71.1459 53.1273 71.1089 52.7539 71.043 52.4196C70.9561 51.9769 70.9529 51.568 70.7519 51.143Z" fill="#786046"/>
<path d="M24.4959 35.3791C24.4154 35.267 24.2578 34.787 24.1662 34.7141C23.9571 34.5452 23.4649 34.7301 23.2655 34.8225C22.939 34.9737 22.7509 35.0555 22.8088 35.4751C22.8731 35.9427 23.2494 36.5188 23.4617 36.9313C23.6049 37.2086 24.2015 38.0941 24.4782 38.1065C24.4878 38.055 24.4975 38.0034 24.5087 37.9519L25.5927 38.295C25.5959 38.1385 25.5509 37.9252 25.5847 37.7723C25.6184 37.6176 25.7294 37.6034 25.7584 37.4469C25.8388 37.0166 25.3595 36.6077 25.1697 36.2858C24.9655 35.9409 24.721 35.692 24.4975 35.3808L24.4959 35.3791Z" fill="#786046"/>
<path d="M32.1304 32.1271C32.481 32.264 33.8481 32.8241 34.1199 32.3316C34.1971 32.1929 34.1086 31.4123 34.1086 31.2665C34.1086 30.934 34.107 30.6016 34.1086 30.2708C34.1086 29.9828 34.2292 29.5472 33.877 29.5454C33.7355 29.5454 33.7033 29.6628 33.6116 29.693C33.4219 29.7552 33.2337 29.7321 33.0327 29.7303C32.4247 29.725 31.8152 29.7303 31.2072 29.7303H31.3198L30.5462 30.2442C30.7553 31.3074 31.1847 31.7608 32.1288 32.1271H32.1304Z" fill="#786046"/>
<path d="M77.2429 57.1225C76.8585 56.8878 76.1815 56.9447 75.7649 56.9518L75.6105 57.1225C75.313 57.0247 75.1795 57.3554 75.1393 57.6239C75.0894 57.9422 75.0219 58.8205 75.1473 59.105C75.4223 59.7308 77.1271 59.8482 77.6386 59.866C77.8798 59.8731 78.1484 59.9495 78.2545 59.7024C78.3639 59.4446 78.15 59.0285 78.0583 58.8081C77.8541 58.3173 77.6611 57.3768 77.2445 57.1207L77.2429 57.1225Z" fill="#786046"/>
<path d="M87.1114 57.7999C86.9313 57.5207 86.5726 57.2558 86.2702 57.158C85.7669 56.9962 84.596 56.9376 84.2808 57.4656L83.6616 58.1502C83.6632 58.7529 83.7774 59.1281 83.9817 59.7042C84.2711 60.5238 84.5156 62.1223 85.3214 62.5774C85.8939 62.8993 87.158 62.9917 87.3832 62.1916C87.4588 61.9213 87.3671 61.5177 87.3719 61.2315C87.3816 60.6003 87.5119 59.9957 87.544 59.3681C87.5714 58.808 87.4057 58.2551 87.1114 57.7963V57.7999Z" fill="#786046"/>
<path d="M99.1462 59.1868C98.9114 58.6427 98.6396 58.4684 98.1073 58.3493C97.2082 58.1502 96.5939 59.0854 96.2047 59.8606L95.5855 60.5452C95.1319 60.5398 95.0628 60.6376 95.111 61.1746C95.1496 61.6031 95.3378 62.0334 95.4246 62.4494C95.5437 63.0131 95.6096 63.5767 95.9023 64.071C96.3333 64.7964 96.7322 64.7164 97.3546 64.9955C97.7888 65.1893 98.7216 65.3903 99.1655 65.1396C99.6914 64.8409 99.4598 63.1571 99.4598 62.7161C99.4598 61.612 99.5901 60.2127 99.1462 59.1868Z" fill="#786046"/>
<path d="M112.83 63.3562C112.353 62.7179 112.022 62.1649 111.226 62.2592L109.369 62.6023C109.071 62.6112 108.818 62.5081 108.625 62.7961C108.35 63.2069 108.442 63.8932 108.441 64.3661C108.437 64.8711 108.367 65.4756 108.72 65.8686C108.981 66.1584 109.666 66.3646 109.959 66.5406C110.285 66.738 110.592 66.9727 110.927 67.1558C111.461 67.4457 111.783 67.499 112.247 67.0403C112.738 66.5567 113.151 65.817 113.232 65.0844C113.261 64.8249 113.293 64.4337 113.256 64.1812C113.201 63.8203 113.043 63.6443 112.83 63.358V63.3562Z" fill="#786046"/>
<path d="M50.6981 48.812C50.6016 48.6199 50.5051 48.4706 50.2767 48.4066C50.0323 48.3372 49.6929 48.3906 49.4388 48.3924L49.2844 49.0769C49.2844 49.4325 49.2892 49.7899 49.2844 50.1455C49.2796 50.5864 49.2088 50.7873 49.5868 50.9634C49.8907 51.1056 50.3202 51.2087 50.6466 51.2674C51.023 51.335 51.15 51.2159 51.15 50.7927C51.15 50.3588 50.9603 49.9872 50.8638 49.5783C50.8026 49.3187 50.8219 49.0573 50.6997 48.812H50.6981Z" fill="#786046"/>
<path d="M37.3606 45.9956L36.587 45.6524C36.2187 45.6524 35.7088 45.5582 35.3631 45.6791C35.1701 46.7672 36.0852 48.2216 37.1193 48.2323C37.5922 48.2376 37.5214 48.0687 37.515 47.5904C37.5101 47.1939 37.7096 46.2729 37.3606 45.9956Z" fill="#786046"/>
<path opacity="0.3" d="M128.47 68.9214C128.185 68.9143 127.875 68.7916 127.56 68.7631C127.201 68.7365 126.921 68.5853 126.556 68.5924C125.763 68.6067 125.051 68.5444 124.295 68.4075C123.396 68.244 122.523 68.1071 121.625 67.9488C121.254 67.8795 120.882 67.7568 120.517 67.7301C120.096 67.7034 119.748 67.6963 119.34 67.5861C118.758 67.435 118.145 67.2376 117.55 67.2163C117.042 67.202 116.664 67.0527 116.181 66.9211C115.753 66.7984 115.264 66.8998 114.819 66.8802C114.558 66.8731 114.398 66.8109 114.144 66.7095C113.748 66.546 113.344 66.5513 112.936 66.4499C112.403 66.3201 111.871 66.3806 111.343 66.1957C110.941 66.0588 110.551 65.9485 110.142 65.8596C109.64 65.7441 109.151 65.5165 108.643 65.3938C107.62 65.1395 106.605 64.9137 105.565 64.7359C105.126 64.6612 104.704 64.647 104.257 64.6613C103.886 64.6684 103.612 64.5581 103.26 64.4977C102.739 64.4017 102.2 64.423 101.668 64.3128C101.03 64.1901 100.38 64.1065 99.7541 63.9767C99.2717 63.8736 98.794 63.5927 98.2986 63.4771C97.0667 63.1891 95.8959 62.9561 94.6317 62.9366C93.8147 62.9295 93.0331 63.2033 92.2032 63.1215C91.4103 63.0397 90.7847 62.3747 90.0111 62.2663C89.4852 62.1916 88.9336 62.3409 88.4125 62.2663C88.004 62.2111 87.6871 62.0885 87.261 62.0885C86.883 62.0885 86.579 62.0742 86.2574 61.9587C85.8424 61.8075 85.5706 61.5888 85.2104 61.315C85.0061 61.1568 84.8019 61.0412 84.5976 60.9594C84.1634 61.0145 83.5571 60.8972 83.2724 60.8776C82.5664 60.8367 82.034 60.5416 81.3328 60.5487C80.868 60.5558 80.5094 60.5274 80.0751 60.4189C79.858 60.3567 79.48 60.4865 79.3015 60.3922C79.1471 60.3104 79.1841 60.2002 79.0973 60.0295C78.9863 59.8108 78.8062 59.5974 78.6695 59.4001C78.4089 59.0231 78.2545 58.6391 78.0245 58.2497C77.7093 57.695 77.1448 57.1811 76.6929 56.7775C76.4146 56.5233 76.0737 56.3935 75.7633 56.2299C75.3982 56.0379 75.5092 55.6485 75.0701 55.8334C74.8723 55.9223 74.7549 56.1214 74.5378 56.0663C74.2467 55.9916 73.888 55.0262 73.8124 54.7577C73.6822 54.3132 73.7819 53.9505 73.3669 53.8598C73.219 53.826 73.0453 53.9149 72.8957 53.8811C72.3698 53.7584 72.3875 52.7165 72.1398 52.2578C71.9114 51.8328 71.675 52.0942 71.2971 51.9697C71.2102 51.4701 71.0671 51.3528 70.8017 50.9634C70.5975 50.6558 70.4543 50.2024 70.2324 49.9232C70.0346 49.6761 69.7917 49.7312 69.5633 49.6014C69.3655 49.4787 69.2417 49.3472 69.0374 49.2529C68.7592 49.1231 68.2445 49.1907 68.0146 49.0058C67.7604 48.7995 68.0145 48.4102 67.8473 48.2519C67.606 48.0261 67.0544 48.4226 66.8196 48.211C66.7151 48.1221 66.5044 47.4518 66.4658 47.3611C66.3789 47.1353 66.3291 46.9504 66.2985 46.7033C65.8096 46.4846 65.147 46.8135 64.6259 46.6552C64.4023 45.9707 65.586 45.6631 64.769 45.1084C64.0003 44.5945 62.9549 44.5607 62.199 44.0202C61.9642 43.8566 61.9883 43.766 61.969 43.4441C61.4367 43.4299 60.8287 43.9989 60.8979 43.0885C60.9107 42.8698 61.0716 42.6085 61.0458 42.404C60.9847 41.8973 59.9377 41.8902 59.6466 41.8421C59.0403 41.7319 58.3584 41.8279 57.8003 41.547C57.305 41.3141 57.5655 40.882 57.4787 40.3753C57.1506 40.2597 56.7662 40.3682 56.4252 40.3486C56.0039 40.3273 56.2451 40.3219 56.0601 40.0055C55.6758 39.3476 55.2737 39.6836 54.6915 39.4987C54.2138 39.3476 54.283 38.8337 54.0466 38.4995C53.7748 38.103 53.3839 38.3768 53.0366 38.5137C52.8999 38.5688 52.5476 38.7804 52.4045 38.6097C52.2935 38.4799 52.4286 38.2612 52.3852 38.1172C52.2485 37.5891 51.5296 37.5073 51.1709 37.2744C50.9233 37.1108 50.6322 36.645 50.3652 36.5685C50.0805 36.5952 49.8023 36.6503 49.5224 36.7197C49.2008 36.7606 48.8775 36.7819 48.5559 36.7606C48.2953 36.7535 48.0107 36.7872 47.7565 36.7392C47.652 36.3072 47.7807 35.836 47.7437 35.3897C47.2917 35.2866 46.8141 35.4591 46.3622 35.5195C46.1145 35.5462 45.4953 35.6778 45.2283 35.5604C44.9806 35.4502 45.0112 35.6635 44.9308 35.2599C44.9002 35.1017 44.9549 34.8972 44.9308 34.7265C44.5287 34.5683 43.9835 34.7052 43.5991 34.8705C43.3514 34.9808 43.308 35.1301 43.078 34.9665C42.6567 34.659 43.1343 33.898 42.9172 33.5086C42.0873 33.5299 41.1513 34.0633 40.3214 33.8162C40.3086 33.7202 40.2909 33.6241 40.278 33.5281C39.9242 33.4126 39.4481 33.4943 39.083 33.5015C38.7549 33.5086 38.7115 33.5637 38.5748 33.2614C38.4445 32.9734 38.5314 32.4667 38.3336 32.2408C38.11 31.9866 37.7208 32.1786 37.4667 32.296C37.2126 32.4062 36.78 32.8365 36.513 32.5484C36.3634 32.3902 36.4326 32.1573 36.2396 32.0008C36.0723 31.8568 35.6767 31.7821 35.4708 31.6861C35.1299 31.535 34.8018 31.2949 34.4367 31.2469C34.3434 30.7473 34.2131 30.3028 34.0957 29.8227C33.996 29.412 34.1697 29.4316 33.7114 29.3907C33.5007 29.3693 33.29 29.2129 33.1163 29.2271C32.9731 29.2413 32.7995 29.4796 32.6708 29.5223C32.399 29.6183 32.2752 29.508 32.058 29.4334C31.7669 29.3302 31.4694 29.2271 31.1654 29.2147C30.7698 29.2004 30.5897 29.2893 30.3854 28.8857C30.2857 28.7008 30.2246 28.3523 30.0445 28.2279C29.8708 28.1123 29.4928 28.1941 29.3014 28.1941C28.7562 28.1941 28.2914 28.2207 27.7961 28.0234C27.3506 27.8456 27.016 27.7567 26.7121 27.3104C26.4708 26.9619 26.2907 26.537 26.0495 26.1814C25.9497 26.0373 25.4673 25.4826 25.8951 25.4559C25.9079 24.2575 26.1251 23.333 26.5448 22.7587C27.0707 23.5606 27.7896 24.3269 28.6565 25.0594C29.4188 25.7102 30.2986 26.3325 31.27 26.9423H31.4179C31.9069 26.9281 32.4086 26.9423 32.8992 26.9423C33.2273 26.9423 33.6615 26.8392 33.9703 26.9495C34.3547 27.0935 34.62 27.6411 34.6152 28.0323C34.5959 28.7862 34.9996 28.7719 35.5512 28.9426C35.942 29.0724 36.3682 28.9835 36.7655 29.1009C36.9762 29.1631 37.0325 29.3551 37.2239 29.4369C37.3477 29.492 37.5584 29.4778 37.6887 29.4582C38.1229 29.3889 38.5121 29.3071 38.9528 29.2876C39.1329 29.6023 38.7115 30.2192 39.0702 30.4717C39.2616 30.6157 39.7698 30.4717 40.0062 30.4788C40.2667 30.4859 40.5643 30.4522 40.7862 30.6709C40.9229 30.8078 40.9036 31.0816 41.0838 31.1634C41.2446 31.238 41.5984 30.9856 41.7464 30.9571C41.9329 30.9162 42.1549 30.902 42.335 30.9571C42.6937 31.0674 43.0909 31.4087 43.271 31.759C43.4624 32.1431 43.4383 32.4507 43.8774 32.5467C44.125 32.6018 44.3598 32.4578 44.6204 32.5804C44.8005 32.6622 44.9356 32.7991 45.1093 32.8756C45.5918 33.0943 46.1434 33.1974 46.6581 33.2241C47.3336 33.265 48.0267 33.2312 48.7022 33.217C49.2539 33.1956 49.352 33.4766 49.6318 33.93C49.7187 34.0598 49.8361 34.17 49.9229 34.2998C50.1272 34.6003 50.1835 34.8812 50.5421 34.9434C50.8525 34.9914 51.2417 34.9505 51.5521 34.9363C51.8802 34.9221 52.1407 34.5114 52.4077 34.8545C52.6313 35.1355 52.7117 35.6013 52.8661 35.9302C52.9594 36.1223 53.0398 36.3143 53.1379 36.4636C53.4595 36.6005 53.7876 36.7375 54.1045 36.8673C54.209 36.8673 54.3087 36.8815 54.439 36.949C54.5323 36.9899 54.5998 37.0593 54.6738 37.1126C54.7671 37.1535 54.8604 37.1944 54.952 37.2282C55.1193 37.2495 55.33 37.214 55.4972 37.214C55.6951 37.2069 55.925 37.2477 56.1229 37.2211C56.5185 37.1517 56.8225 36.9401 57.0589 37.4273C57.1956 37.694 57.2069 38.0034 57.35 38.2701C57.3564 38.2914 57.3741 38.311 57.3805 38.3252C58.1976 38.7164 58.9792 39.0987 59.7029 39.4969L60.1114 39.7227C60.3784 39.7227 60.6438 39.7299 60.9107 39.7227C61.115 39.7227 61.3562 39.6605 61.5428 39.7565C61.9014 39.9343 61.9819 40.5709 62.1314 40.9336C62.7699 41.3443 63.3827 41.7621 63.989 42.1942C64.2495 42.084 64.4715 41.9133 64.7948 41.9951C65.2724 42.1106 65.3898 42.7489 65.6118 43.1721C65.6729 43.3019 65.742 43.4388 65.816 43.5757C72.8346 49.164 77.4054 55.949 79.5235 57.7572C82.2109 60.0384 104.095 63.0024 112.352 64.8319C117.585 65.9894 124.728 67.7763 128.462 68.9267L128.47 68.9214Z" fill="#FFF3E2"/>
<path d="M23.7335 70.8932C22.0303 71.7964 17.7989 70.2904 15.8352 72.7014L16.3499 70.4149C16.3499 70.4149 12.3243 70.8949 11.4993 72.7014V70.6531L9.22676 72.7014C9.22676 72.7014 9.0225 68.8467 12.1201 67.2785C15.2176 65.7174 19.6581 65.1146 19.6581 65.1146C19.6581 65.1146 21.3066 58.6017 23.4746 56.7952C23.4746 56.7952 18.3393 55.7071 16.5622 51.9804C16.2276 51.2745 16.0909 50.5633 16.1167 49.8983C16.2228 47.0286 19.2689 44.831 22.032 46.1325C22.032 46.1325 28.9814 48.7764 31.36 52.6169V52.624C31.7316 53.2196 31.9921 53.8491 32.0966 54.4998C32.8702 59.3271 25.4383 69.9899 23.7351 70.8932H23.7335Z" fill="#C09367"/>
<path d="M66.3178 72.7014C62.2923 71.6737 52.8516 68.8876 52.226 63.285C51.996 61.251 52.6104 59.9975 53.4772 59.224C55.0067 57.8621 57.3355 57.9777 57.3355 57.9777C61.1021 57.9777 67.2458 62.8192 70.5412 66.5655C71.4515 67.5932 72.1398 68.5373 72.5113 69.277C74.2145 72.7014 70.3434 73.7274 66.3178 72.7014Z" fill="#C09367"/>
<path d="M72.9279 73.4677C72.3328 75.3578 70.7728 76.5828 70.7728 76.5828L70.4511 74.5825H67.7138C66.4256 74.5825 64.7224 76.5828 64.7224 76.5828C64.3573 75.836 64.412 74.5825 64.412 74.5825C64.412 74.5825 63.2235 74.5825 61.3643 74.4936C59.5067 74.4118 59.0419 75.6102 59.0419 75.6102C59.0419 75.6102 58.5771 73.3842 59.9715 71.8444C60.2433 71.5439 60.7145 71.3163 61.3032 71.1527C63.7317 70.454 68.1046 70.7278 68.1046 70.7278C70.8484 70.7278 72.2122 70.9945 72.7815 71.5421C73.2463 71.9937 73.19 72.6303 72.9295 73.4659L72.9279 73.4677Z" fill="#C09367"/>
<path opacity="0.2" d="M72.9279 73.4677C72.3328 75.3577 70.7728 76.5828 70.7728 76.5828L70.4511 74.5825H67.7138C66.4256 74.5825 64.7224 76.5828 64.7224 76.5828C64.3573 75.836 64.412 74.5825 64.412 74.5825C64.412 74.5825 63.2235 74.5825 61.3643 74.4936C59.5067 74.4118 59.0419 75.6102 59.0419 75.6102C59.0419 75.6102 58.5771 73.3841 59.9715 71.8444C60.2433 71.5439 60.7145 71.3163 61.3032 71.1527C63.217 71.871 65.044 72.3724 66.321 72.6996C69.2578 73.4464 72.106 73.1032 72.7815 71.5421C73.2463 71.9937 73.19 72.6302 72.9295 73.4659L72.9279 73.4677Z" fill="#332A21"/>
<path d="M14.674 68.8502L13.59 68.4217C13.352 68.4164 12.7312 68.4804 12.6379 68.7826C12.5447 69.0813 12.9323 69.7374 13.1638 69.7961C13.3971 69.8548 13.8168 69.8388 14.0307 69.7179C14.1819 69.6325 14.3427 69.4583 14.4859 69.3445C14.6017 69.252 14.8912 69.0191 14.674 68.852V68.8502Z" fill="#786046"/>
<path d="M17.1411 67.6465C16.8404 67.6483 16.3901 67.7478 16.3772 68.1977C16.3676 68.5568 16.8243 69.0387 17.1395 69.0333C17.3422 69.0298 17.6912 69.0938 17.8472 68.9338L17.6156 67.8207C17.5513 67.5807 17.3165 67.6447 17.1411 67.6447V67.6465Z" fill="#786046"/>
<path d="M22.114 69.0351C21.9837 68.7755 21.8148 68.5746 21.7007 68.315C21.6074 68.1052 21.4289 67.9185 21.4063 67.6838C21.3838 67.4367 21.4449 67.2358 21.2857 67.0171C21.1506 66.8322 20.911 66.6597 20.7003 66.6206C20.4558 66.5744 20.2918 66.5121 20.065 66.3806C19.8752 66.2703 19.7562 66.281 19.0872 66.6224C19.0984 67.0366 19.2271 67.0633 19.552 67.2447C19.7466 67.3531 19.9589 67.4723 20.1422 67.6003C20.4816 67.8403 20.3738 68.0928 20.4398 68.4964C20.4944 68.8342 20.5346 69.14 20.5507 69.4814C20.5829 69.7303 20.6424 69.9722 20.7325 70.2033C20.7743 70.3882 20.8209 70.5714 20.874 70.7509C21.0027 71.0034 21.2198 71.0016 21.453 70.991C21.7585 70.9767 22.4067 71.0763 22.5144 70.6051C22.5514 70.4416 22.4694 70.2638 22.4356 70.1091C22.3552 69.7286 22.2893 69.3819 22.1108 69.0316L22.114 69.0351Z" fill="#786046"/>
<path d="M24.8593 65.0968C25.3209 64.8799 25.2051 64.4247 25.2051 63.9696L24.6631 63.285C24.29 63.4362 24.0021 63.7367 23.7158 64.03C23.5823 64.1669 23.3556 64.3198 23.3234 64.5403C23.2719 64.8924 23.4987 65.12 23.7705 65.1768C24.0391 65.2337 24.602 65.2177 24.8609 65.0968H24.8593Z" fill="#786046"/>
<path d="M20.8241 64.142C21.0718 64.1367 22.4196 64.2238 22.2619 63.7135L21.178 63.3704C20.956 63.5037 20.6569 63.5766 20.525 63.8415C20.3754 64.1456 20.6263 64.1474 20.8241 64.142Z" fill="#786046"/>
<path d="M28.8431 58.5768C28.5825 58.6035 28.3445 58.6212 28.1209 58.767C27.9489 58.879 27.6401 59.0213 27.5339 59.2115C27.3972 59.4551 27.4471 59.8641 27.4487 60.145C27.4487 60.3566 27.3956 60.6464 27.5178 60.8313C27.6465 61.0269 27.8331 60.9753 28.0244 60.9735C28.2705 60.97 28.5182 60.986 28.7626 60.9824C29.0377 60.9771 29.2773 60.8242 29.4156 60.5504C29.5121 60.3584 29.4896 60.001 29.3079 59.8623L28.8431 58.5786V58.5768Z" fill="#786046"/>
<path d="M28.708 55.0883C28.872 54.9958 28.9412 54.9265 28.9862 54.7149C29.1261 54.0624 28.6629 53.7388 28.2239 53.4418L27.2943 52.7573C26.8279 52.7431 26.4483 52.8427 26.0302 53.0738C25.8211 53.1894 25.6731 53.3938 25.5075 53.5752C25.4013 53.6783 25.3032 53.7903 25.2132 53.9095C25.1617 54.0499 25.1118 54.1922 25.0668 54.3362C24.951 54.6278 24.8818 54.8074 24.8867 55.1416C24.8899 55.355 24.9221 55.5097 24.9542 55.7088C25.0218 56.1249 24.84 56.701 25.4174 56.7063C25.7809 56.7098 26.1942 56.6103 26.5191 56.4343C26.7314 56.3205 26.8842 56.1409 27.0739 55.9897C27.2927 55.8137 27.5371 55.6519 27.7752 55.5132C28.0743 55.3372 28.4088 55.2572 28.7064 55.0883H28.708Z" fill="#786046"/>
<path d="M24.015 50.9846C24.0423 50.9011 24.0552 50.8157 24.052 50.7268C24.105 50.613 24.179 50.5206 24.2755 50.4459L23.1915 49.4182C22.9792 49.4449 22.7959 49.3151 22.5884 49.3186C22.4694 49.3026 22.3745 49.3489 22.3021 49.4555C22.2056 49.5693 22.0899 49.6494 21.9564 49.6956C21.6813 49.9623 21.9596 50.7144 22.1574 50.9509C22.4887 51.3491 23.1063 51.2229 23.5502 51.2176C23.7464 51.2176 23.9104 51.2122 24.015 50.9846Z" fill="#786046"/>
<path d="M24.7403 66.7095C24.5521 66.7148 24.3173 66.6401 24.1501 66.7575C23.9008 66.9317 23.9635 67.2785 23.9651 67.5469C23.9651 67.7656 23.9571 67.9861 23.9619 68.2048C23.9667 68.4697 24.015 68.5071 24.2482 68.5088C24.4846 68.5088 24.7677 68.5657 24.9944 68.4804C25.1874 68.4075 25.5509 68.1479 25.6426 67.931C25.723 67.7407 25.6329 67.5398 25.7182 67.3478C25.7744 67.2198 25.8935 67.1273 25.9256 66.9851C25.9642 66.8215 25.916 66.7771 25.8227 66.6241L24.7387 66.7095H24.7403Z" fill="#786046"/>
<path d="M64.8221 68.3648L63.6352 67.9078C63.5837 67.9754 63.4695 67.9612 63.3988 67.9825C63.2878 68.0163 63.2042 68.1034 63.0932 68.139C62.8439 68.2154 62.6541 68.3097 62.6975 68.6404C62.7265 68.8626 62.8809 69.0778 62.9886 69.268C63.1495 69.5525 63.4422 69.6041 63.7285 69.6521C64.2319 69.7356 64.798 69.7339 65.2177 69.3872C65.3882 69.2467 65.3705 68.9426 65.3062 68.7311C65.2274 68.4768 65.0714 68.3274 64.8221 68.363V68.3648Z" fill="#786046"/>
<path d="M59.3475 65.6836C59.4054 65.536 59.3491 65.2746 59.3507 65.1128L58.5256 63.6299C58.1622 63.6299 57.8373 63.5482 57.5559 63.8398C57.4015 63.9998 57.3066 64.1207 57.268 64.3572C57.2036 64.7554 57.2149 65.1999 57.2245 65.6018C57.2374 66.0907 57.5687 66.0409 57.9338 66.0321C58.2394 66.0249 58.5562 66.0694 58.8505 65.9592C58.9856 65.9076 59.2864 65.8418 59.3475 65.6853V65.6836Z" fill="#786046"/>
<path d="M70.0635 70.5855C69.8995 70.5766 69.8303 70.5784 69.6743 70.4753L69.4154 69.7338C69.4186 69.5827 69.2401 69.6129 69.1581 69.6147C68.9683 69.62 68.7769 69.6218 68.5871 69.62C68.4182 69.62 68.1287 69.5809 67.984 69.7C67.873 69.7907 67.8988 70.1286 67.9181 70.2566C67.9937 70.7455 68.2848 71.3767 68.6177 71.7217C68.8718 71.9848 69.2288 72.0861 69.5666 71.9884C69.9027 71.8906 70.2662 71.7501 70.4785 71.4283C70.6634 71.1491 70.5106 70.9411 70.3112 70.7349C70.2292 70.6495 70.1745 70.5944 70.0619 70.5873L70.0635 70.5855Z" fill="#786046"/>
<path d="M55.3766 62.0297C55.2721 62.0297 55.1499 62.0137 55.0437 62.0351C54.8571 62.0742 54.6835 62.2235 54.5484 62.3658C54.3457 62.5791 54.3361 62.7569 54.2766 63.0574C54.2347 63.2672 54.1559 63.4717 54.1881 63.6886C54.2347 64.0033 54.3763 64.0211 54.6288 64.0282C54.9536 64.0371 55.2785 64.0584 55.5809 63.9126L55.7353 62.0866C55.6484 61.987 55.4844 62.0297 55.375 62.0297H55.3766Z" fill="#786046"/>
<path d="M62.3437 65.968C62.3727 65.9591 62.3663 65.9609 62.3437 65.9662V65.968Z" fill="#786046"/>
<path d="M61.7036 65.4541C61.4769 65.4541 61.2501 65.4541 61.0233 65.4541C60.8802 65.4541 60.7177 65.4381 60.5875 65.5288C60.4299 65.6391 60.4363 65.952 60.5907 66.08C60.7306 66.1956 61.0169 66.2027 61.1842 66.1991C61.3225 66.1956 61.4592 66.1956 61.5975 66.1956C61.7583 66.1956 61.9577 66.2471 62.1041 66.16C62.1716 66.0924 62.2424 66.0284 62.318 65.9715C62.3325 65.968 62.3357 65.968 62.3437 65.9662L62.1379 65.511C62.0687 65.3884 61.813 65.4541 61.7036 65.4541Z" fill="#786046"/>
<path d="M61.3273 69.6236C61.0282 69.6307 60.7821 69.3426 60.4845 69.3924L59.9168 68.5941C59.8557 68.699 59.6852 68.6208 59.6096 68.6083C59.4778 68.5852 59.3507 68.5941 59.2188 68.5941C59.0757 68.5941 58.7814 68.5336 58.6672 68.6545C58.3343 69.0066 59.095 69.5293 59.2896 69.6502C59.3941 69.716 59.4617 69.8138 59.5582 69.892C59.6273 69.9561 59.7045 70.0041 59.7914 70.0343C59.8637 70.0841 59.9297 70.1427 59.986 70.2121C60.2851 70.4361 60.8368 70.4272 61.1809 70.3117C61.3273 70.2637 61.4704 70.1908 61.612 70.1339C61.6843 70.1036 61.7487 70.1232 61.7985 70.0289C61.8516 69.9294 61.8082 69.8263 61.7358 69.7427C61.6104 69.5987 61.4849 69.62 61.3257 69.6253L61.3273 69.6236Z" fill="#786046"/>
<path d="M58.0448 62.4386C58.2056 62.5488 58.4469 62.636 58.6334 62.6591C58.9068 62.6928 59.1995 62.6626 59.452 62.5435L58.9872 61.402C58.8409 61.2242 58.4967 61.386 58.3327 61.4393C58.1734 61.4909 58.0271 61.5727 57.9161 61.7149C57.8244 61.8323 57.8357 61.9692 57.8518 62.115C57.8727 62.2963 57.9113 62.3461 58.0432 62.4368L58.0448 62.4386Z" fill="#786046"/>
<path d="M66.2133 66.4215C66.0685 66.4357 65.935 66.4606 65.8112 66.5477C65.5217 66.7486 65.6005 67.1007 65.5957 67.4225C65.5925 67.5718 65.5603 67.7087 65.6649 67.8172C65.7999 67.9577 65.9994 67.9328 66.157 67.8705C66.3484 67.7959 66.5414 67.739 66.7328 67.6678C66.8453 67.627 67.1959 67.5132 67.1959 67.3371L66.7311 66.3663C66.5687 66.3468 66.3741 66.4037 66.2133 66.4215Z" fill="#786046"/>
<path d="M71.2215 69.2769C71.1041 69.2502 70.9899 69.2609 70.8789 69.3107C70.776 69.3605 70.6843 69.4263 70.6007 69.508C70.5154 69.7214 70.8033 70.0219 70.9722 70.029C71.0607 70.0326 71.7747 70.0735 71.7361 69.9045L71.2199 69.2769H71.2215Z" fill="#786046"/>
<path opacity="0.2" d="M23.7335 70.8932C22.0303 71.7964 17.7989 70.2904 15.8352 72.7014L16.3499 70.4149C16.3499 70.4149 12.3243 70.8949 11.4993 72.7014V70.6531L9.22676 72.7014C9.22676 72.7014 9.0225 68.8467 12.1201 67.2785C15.2176 65.7174 19.6581 65.1146 19.6581 65.1146C19.6581 65.1146 21.3066 58.6017 23.4746 56.7952C23.4746 56.7952 18.3393 55.7071 16.5622 51.9804C16.2276 51.2745 16.0909 50.5633 16.1167 49.8983C16.538 50.9118 18.0241 52.5351 22.8747 54.1638C30.7907 56.8273 31.4967 53.6642 31.36 52.6222C31.7316 53.2179 31.9921 53.8473 32.0966 54.4981C32.8702 59.3254 25.4383 69.9881 23.7351 70.8914L23.7335 70.8932Z" fill="#332A21"/>
<path opacity="0.2" d="M66.3178 72.7014C62.2923 71.6737 52.8516 68.8875 52.226 63.285C51.996 61.2509 52.6104 59.9974 53.4772 59.224C53.4772 59.224 52.5846 62.0866 59.7094 64.9421C66.826 67.7834 71.6461 70.3242 70.5428 66.5654C71.4531 67.5931 72.1414 68.5373 72.5129 69.2769C74.2161 72.7014 70.345 73.7273 66.3194 72.7014H66.3178Z" fill="#332A21"/>
<path d="M66.3918 71.4177C66.3918 71.4177 65.0794 71.5884 64.8478 72.6161C64.6162 73.6438 65.0055 74.3017 65.3528 73.6314C65.7002 72.9593 66.9515 73.1726 67.1976 72.4027C67.442 71.6329 67.0094 71.5048 66.3934 71.4177H66.3918Z" fill="#C09367"/>
<path d="M61.8226 71.1545C61.8226 71.1545 60.3173 71.2079 59.9683 72.6605C59.6193 74.115 60.3671 72.6605 61.4061 72.4027C62.4451 72.1467 62.9967 70.9199 61.8226 71.1545Z" fill="#C09367"/>
<path d="M72.4357 71.8035C72.4357 71.8035 71.5833 71.6772 71.3518 72.6605C71.1202 73.6437 71.3904 74.7194 71.8937 73.9033C72.3971 73.0872 72.9311 71.7235 72.4357 71.8035Z" fill="#C09367"/>
<path d="M22.5386 24.5135C22.9841 26.1973 24.5087 29.1008 24.5087 29.1008L23.6853 29.0937C23.4746 29.0937 23.1899 29.067 22.8731 29.0243C22.0127 28.9016 20.9592 28.6812 20.8113 28.6545C20.7984 28.6474 20.792 28.6474 20.792 28.6474L20.8659 28.9763C20.8788 29.0385 20.8836 29.0723 20.8836 29.0723C20.8836 29.0723 20.8836 29.0794 20.8901 29.0865L21.305 30.9428C21.305 30.9428 19.8624 30.4698 18.9633 30.1285C18.0659 29.7853 15.7918 27.2516 15.7854 27.2463C15.3945 27.6499 15.0793 28.0962 14.8751 28.5603C14.3733 29.7249 14.1497 30.4432 13.9214 30.7579C13.6801 31.0868 13.4373 30.9766 12.8937 30.4627L12.8872 30.4556C12.7135 30.292 12.4852 30.1196 12.2182 29.9418C11.332 29.3248 10.0309 28.5923 8.77965 27.6677C8.09774 27.1681 7.43512 26.6062 6.86579 25.9768C6.33344 25.3883 5.75124 24.7571 5.15618 24.0459C4.04163 22.7248 2.87723 21.121 1.88492 18.9038C1.47641 18.0059 1.1049 16.9996 0.776804 15.8776C0.73338 15.7194 0.689956 15.57 0.646533 15.4189C0.42298 14.617 0.268585 13.9396 0.164046 13.3653C0.059507 12.8106 0.00965007 12.3518 0.00321691 11.9678C-0.0144743 11.4468 0.0402076 11.0645 0.139922 10.7765C0.381165 10.1062 0.876518 9.91416 1.34131 9.70791C1.34131 9.70791 1.40886 9.66702 1.52144 9.59767C2.46229 8.85091 4.18477 5.42111 5.67083 3.76399C5.88795 3.51685 6.09863 3.31237 6.30289 3.16124C7.69084 2.11399 10.3043 1.52546 11.1905 1.34588C11.3819 1.3121 11.4944 1.29077 11.4944 1.29077C11.4944 1.29077 12.2809 1.16808 13.3279 1.03651C14.0581 0.933384 14.9137 0.837371 15.7066 0.769806C16.6168 0.695129 17.4467 0.659569 17.918 0.736024C19.3863 0.95472 20.9898 2.194 20.9898 2.194C20.9898 2.194 21.6395 6.11809 21.9001 6.90575C22.0545 7.37871 22.7927 9.12472 23.3491 10.4262C23.7142 11.2815 24.0053 11.9536 24.0053 11.9536L26.6445 14.0836H24.8175C24.8175 14.0836 24.6197 14.1867 24.3527 14.4268C23.9185 14.8304 23.3122 15.6252 23.1819 17.0227C23.1642 17.2627 23.1513 17.5223 23.1642 17.8032C23.2687 20.6587 23.1401 22.2536 25.8147 21.2686L27.3876 24.2948C27.3876 24.2948 24.6245 24.4797 22.537 24.5135H22.5386Z" fill="#C09367"/>
<path d="M19.7627 19.1314C19.7627 19.4194 19.7868 19.6168 19.5391 19.7413C19.3525 19.8302 19.0566 19.7484 18.8572 19.7199C18.4053 19.6506 17.9903 19.583 17.5561 19.391C17.1347 19.199 17.0414 18.4184 16.5284 18.8434C16.1263 19.1794 16.2437 19.7608 16.2502 20.248C16.2502 20.4542 16.2695 20.6587 16.2373 20.8579C16.1762 21.2828 15.9156 21.4944 15.7484 21.85C15.4814 22.419 15.4074 23.1159 15.4331 23.74C15.4508 24.309 14.8268 24.7268 15.3962 25.2193C15.7242 25.5074 16.3064 25.1038 16.5734 25.3971C16.4126 25.671 16.1713 25.8701 16.0105 26.1368C15.8626 26.3839 15.824 26.7324 15.6084 26.9316C15.4348 27.0898 15.3366 26.9796 15.1501 27.0276C14.859 27.1023 14.5984 27.5076 14.4071 27.7121C14.0484 28.1086 13.7573 28.5673 13.4903 29.0403C13.3295 29.3283 13.2427 29.4919 13.1622 29.8137C13.1011 30.0395 12.9885 30.2458 12.8904 30.4574C12.7167 30.2938 12.4884 30.1213 12.2214 29.9435C12.3452 29.5737 12.4015 29.163 12.6058 28.8483C12.8904 28.4109 13.1815 28.0411 13.5289 27.6641C14.2157 26.9245 14.6322 25.7812 14.4762 24.7126C14.3958 24.1792 14.2527 23.6725 14.1722 23.1444C14.1047 22.7266 14.0854 22.3496 14.0854 21.9247V20.4667C14.079 19.9671 14.1481 19.6381 14.2768 19.1723C14.3636 18.8505 14.5116 18.5358 14.6483 18.2335C14.8333 17.837 15.1935 17.3783 15.2369 16.9391C15.2804 16.411 14.9764 15.762 14.8526 15.2606C14.7898 15.0011 14.7786 14.7201 14.7158 14.4659C14.6419 14.1992 14.4553 14.0338 14.3878 13.7671C14.2511 13.239 14.2076 12.6647 14.0709 12.1438C13.9905 11.8433 13.73 11.589 13.582 11.3152C13.4887 11.1374 13.3842 10.9454 13.3102 10.7534C13.1799 10.4173 13.1252 10.3355 12.8647 10.0688C12.6974 9.89103 12.5302 9.76835 12.5173 9.49986C12.5109 9.27406 12.6476 9.12292 12.7891 8.98602C12.9628 8.81533 13.0609 8.6233 13.2234 8.43127C13.5016 8.54685 13.7814 8.82244 14.0291 9.01269C14.2141 9.16382 14.3765 9.33451 14.5438 9.51942C14.9458 9.96393 15.3173 10.444 15.5715 11.0058C15.795 11.4788 16.1472 11.8077 16.4817 12.1829C16.8163 12.5598 17.355 12.8745 17.5529 13.3813C17.6526 13.6355 17.6156 13.9289 17.696 14.1956C17.7893 14.4961 17.926 14.6134 18.1174 14.8321C18.2412 14.9904 18.4149 15.2286 18.476 15.4207C18.5693 15.7158 18.513 15.9612 18.6626 16.2635C18.7736 16.4964 19.0212 16.756 19.1708 16.9764C19.3316 17.2165 19.4008 17.1756 19.5922 17.3534C19.9331 17.6681 19.7659 18.6816 19.7659 19.1278L19.7627 19.1314Z" fill="#786046"/>
<path d="M11.6858 9.16036C11.7293 9.41995 11.7968 9.90002 11.6054 10.0778C11.4575 10.2289 11.3014 10.1472 11.1101 10.1525C10.9734 10.1596 10.8801 10.2147 10.7562 10.2485C10.478 10.3107 10.174 10.2752 9.88937 10.2752C9.4873 10.2752 9.16403 9.99425 8.94209 9.62442C8.85524 9.48751 8.84237 9.29549 8.75553 9.15858C8.60756 8.91855 8.36471 8.82965 8.22318 8.58962C8.08648 8.37092 8.08648 8.12377 7.96264 7.88374C7.88866 7.73972 7.81468 7.74683 7.77125 7.56192C7.70371 7.27388 7.82754 6.91828 7.77125 6.62313C7.70371 6.22663 7.42386 5.82835 7.19549 5.51364C7.08451 5.3554 6.99767 5.19182 6.88509 5.03358C6.71139 4.78643 6.60685 4.80777 6.35918 4.73309C5.9571 4.60329 5.95067 4.33659 5.77697 3.95965C5.74642 3.89031 5.70943 3.82274 5.67244 3.76051C5.88955 3.51337 6.10024 3.3089 6.30449 3.15777C7.69245 2.11051 10.3059 1.52199 11.1921 1.34241C11.0441 1.41175 10.8946 1.4722 10.7466 1.56822C10.3686 1.80825 10.3622 2.00027 10.3622 2.47856C10.3622 2.79327 10.3686 3.10798 10.3686 3.41736C10.3686 3.76585 10.2947 4.24591 10.3815 4.58907C10.4249 4.77398 10.5616 4.88956 10.6356 5.05491C10.6967 5.20604 10.6919 5.35006 10.7595 5.49942C10.8527 5.71811 11.0377 5.84258 11.1068 6.08083C11.131 6.18395 11.094 6.29953 11.131 6.42932C11.1873 6.62846 11.2918 6.79204 11.3288 7.0054C11.3851 7.30055 11.3658 7.59392 11.4221 7.88907C11.4961 8.32113 11.6135 8.73186 11.689 9.15503L11.6858 9.16036Z" fill="#786046"/>
<path d="M16.1585 2.25808C16.1456 2.96396 15.0681 2.73815 14.629 2.73815C14.288 2.73815 12.9258 2.97818 12.9258 2.43055C12.9258 2.27231 13.0738 2.14251 13.1429 2.01272C13.2362 1.81358 13.3295 1.52021 13.3536 1.29973C13.3665 1.18949 13.3601 1.10771 13.3295 1.04014C14.0597 0.937015 14.9153 0.841002 15.7082 0.773438C15.8191 0.896121 15.9188 1.02592 15.9993 1.2055C16.1424 1.54865 16.1665 1.89003 16.1601 2.25986L16.1585 2.25808Z" fill="#786046"/>
<path d="M11.9142 10.7285C11.7839 10.8246 11.8274 10.9277 11.8097 11.0646C11.7904 11.2708 11.7164 11.3526 11.6488 11.55C11.5443 11.8505 11.6119 12.1936 11.6119 12.5083C11.6054 12.7555 11.5877 12.8302 11.4751 13.0364C11.3706 13.2356 11.3207 13.2693 11.2902 13.5218C11.2661 13.7067 11.3079 13.7761 11.2275 13.9539C11.0972 14.2206 11.0039 14.297 10.9798 14.5762C10.9058 15.3016 10.9862 16.0822 10.9862 16.8218C10.9862 17.1365 11.0055 17.4655 10.9862 17.7802C10.9685 18.1909 10.7321 18.5678 10.5584 18.9234C10.4844 19.0675 10.3172 19.2186 10.2738 19.3679C10.2432 19.4835 10.2866 19.5937 10.2673 19.704C10.2239 20.0525 10.0438 20.2801 10.0502 20.6552C10.0631 20.9984 10.0373 21.2651 9.97622 21.594C9.89581 22.0047 10.0068 22.3337 9.84595 22.7106C9.70924 23.0396 9.70281 23.2102 9.46157 23.4698C9.21389 23.7436 9.06593 24.1064 9.02733 24.4975C9.01446 24.6824 9.05145 24.8407 8.97747 25.0256C8.92118 25.1625 8.77322 25.2176 8.7491 25.3883C8.72497 25.559 8.81182 25.799 8.81664 25.9768C8.82951 26.1955 8.81664 26.4285 8.81664 26.6472C8.81664 26.9423 8.8665 27.2837 8.80378 27.5717C8.79734 27.5984 8.79091 27.634 8.77965 27.6677C8.09774 27.1681 7.43512 26.6063 6.86579 25.9768C6.33344 25.3883 5.75124 24.7571 5.15618 24.0459C5.18674 23.9979 5.21729 23.9428 5.25589 23.8823C5.43602 23.5676 5.64027 23.3063 5.85739 23.0271C6.09863 22.7195 6.03109 22.3497 6.03109 21.9799C6.02465 21.2402 6.03109 20.5077 6.03109 19.768C6.03109 19.4871 6.03752 19.199 6.03109 18.9128C6.02465 18.7279 6.0134 18.5981 6.05521 18.4203C6.11793 18.1393 6.32219 17.9473 6.35274 17.6539C6.39617 17.2432 6.33988 16.8183 6.38974 16.4004C6.44603 15.8937 6.38974 15.4421 6.60042 14.9762C6.64385 14.8607 6.6744 14.7646 6.71783 14.6544C6.83523 14.3326 7.04592 14.1263 7.20031 13.8259C7.28073 13.6623 7.38044 13.5111 7.46729 13.3529C7.55414 13.1893 7.58469 13.024 7.64742 12.8533C7.75839 12.5652 7.86454 12.5101 7.89509 12.1545C7.91922 11.8665 7.95782 11.6549 8.03823 11.3811C8.20549 10.8406 8.14277 10.204 8.51429 9.78619C8.74427 9.5266 8.87937 9.49815 9.1769 9.40925C9.43744 9.33991 9.69155 9.21011 9.95049 9.15677C10.2721 9.0821 10.6372 9.12299 10.9476 9.03409C11.2146 8.96475 11.6794 8.36378 11.8515 8.93096C11.8885 9.06076 11.8016 9.22612 11.8016 9.36302C11.7952 9.62261 11.8885 9.89643 11.9126 10.7321L11.9142 10.7285Z" fill="#786046"/>
<path d="M11.3963 6.39194C11.3963 6.39194 9.22836 6.04878 8.29877 7.87481C7.36918 9.70084 8.4017 11.2993 11.3963 10.8423C14.391 10.3854 15.1131 7.07648 11.3963 6.39194Z" fill="#F0E4CE"/>
<path d="M10.6228 7.36096C10.6228 7.36096 8.91153 7.53876 8.91957 9.07853C8.92761 10.6183 12.0171 11.1837 12.4819 9.58704C12.9467 7.9886 12.4819 7.36096 10.6244 7.36096H10.6228Z" fill="#231F20"/>
<path d="M11.8611 8.44558C11.8611 8.16643 11.6553 7.93884 11.4028 7.93884C11.1503 7.93884 10.9444 8.16643 10.9444 8.44558C10.9444 8.72473 11.1503 8.95231 11.4028 8.95231C11.6553 8.95231 11.8611 8.72473 11.8611 8.44558Z" fill="white"/>
<path d="M3.94353 15.8367C3.71997 16.1728 3.54789 16.2741 3.54789 16.7062C3.54789 17.0209 3.60418 17.3641 3.5109 17.6645C3.39992 17.9935 3.25679 18.2602 2.96569 18.39C2.6006 18.5482 2.24678 18.726 1.88813 18.9038C1.47963 18.0059 1.10811 16.9996 0.780021 15.8776C0.736597 15.7194 0.693174 15.57 0.64975 15.4189C0.669049 15.3976 0.693174 15.3709 0.712473 15.3496C0.817012 15.2393 0.923159 15.1309 1.02287 15.0135C1.17084 14.8357 1.26412 14.5886 1.41369 14.4179C1.63724 14.1636 1.84793 14.1512 2.02001 13.808C2.16315 13.5484 2.25482 13.2319 2.49124 13.0613C2.76947 12.8497 2.94317 12.8283 2.94317 12.3767C2.9496 12.0816 2.85632 11.822 3.18441 11.7544C3.61865 11.6584 3.77948 12.1989 3.91458 12.5492C4.19924 13.2622 4.29253 13.9325 4.27966 14.6988C4.27323 15.1984 4.19281 15.4527 3.94513 15.835L3.94353 15.8367Z" fill="#786046"/>
<path d="M20.7904 28.6492L20.8836 29.0742C20.7228 28.9106 20.5925 28.7257 20.5732 28.5052C20.5555 28.2723 20.636 28.1621 20.5604 27.9167C20.4494 27.554 20.1696 27.4242 19.9219 27.2037C19.7112 27.0259 19.4137 26.6703 19.3461 26.3609C19.2657 25.984 19.4137 25.5181 19.4458 25.1412C19.47 24.8869 19.4957 24.6273 19.5327 24.382C19.5697 24.1828 19.6436 24.0673 19.7064 23.8895C19.7804 23.6637 19.8061 23.4521 19.9171 23.2316C20.028 23.02 20.2323 22.8831 20.3384 22.6769C20.4381 22.4919 20.4317 22.2999 20.5427 22.115C20.673 21.8963 20.9335 21.7861 21.0445 21.5674C21.2117 21.2242 21.0879 20.7797 20.9142 20.465C21.0509 20.3281 21.3919 20.4988 21.5157 20.5681C21.7199 20.6784 21.8631 20.7121 22.0802 20.7744C22.3214 20.8437 22.3906 20.8633 22.3343 21.2136C22.2973 21.4731 22.1912 21.7416 22.1236 21.987C22.0496 22.2341 21.9757 22.4724 21.9065 22.7124C21.8261 22.9791 21.6331 23.2672 21.6025 23.5481C21.5656 23.8912 21.6218 24.2806 21.6154 24.6309C21.6154 24.9598 21.6958 25.2194 21.7264 25.5413C21.7392 25.7119 21.6958 25.8897 21.7071 26.0693C21.7312 26.336 21.855 26.5689 21.9049 26.8303C21.9982 27.3157 22.0046 27.474 22.2829 27.8705C22.4196 28.0625 22.5611 28.267 22.6785 28.4732C22.783 28.651 22.8152 28.843 22.8699 29.0279C21.9403 28.8982 20.7887 28.651 20.7887 28.651L20.7904 28.6492Z" fill="#786046"/>
<path opacity="0.15" d="M24.3527 14.4268C24.3591 13.536 24.2723 12.5847 24.0053 11.9553L26.6445 14.0854H24.8175C24.8175 14.0854 24.6197 14.1885 24.3527 14.4285V14.4268Z" fill="#332A21"/>
<path opacity="0.15" d="M22.5386 24.5136C22.9841 26.1974 24.5087 29.1009 24.5087 29.1009L23.6853 29.0938C23.4746 29.0938 23.1899 29.0671 22.8731 29.0244C22.0127 28.9017 20.9592 28.6812 20.8113 28.6546C20.607 27.3673 20.0747 23.4432 21.1024 22.4297C22.3343 21.21 20.9158 20.465 20.9158 20.465C20.9158 20.465 21.5913 18.5679 21.6042 17.7873C21.6106 17.3144 22.471 17.165 23.1835 17.021C23.1658 17.261 23.1529 17.5206 23.1658 17.8015C23.2703 20.657 23.1417 22.2519 25.8163 21.2669L27.3892 24.2931C27.3892 24.2931 24.6261 24.478 22.5386 24.5118V24.5136Z" fill="#332A21"/>
<path opacity="0.15" d="M13.9214 30.7579C13.6801 31.0868 13.4373 30.9766 12.8937 30.4627L12.8872 30.4556C12.7135 30.292 12.4852 30.1196 12.2182 29.9418C11.332 29.3248 10.0309 28.5923 8.77965 27.6677C8.09774 27.1681 7.43512 26.6062 6.86579 25.9768C6.33344 25.3883 5.75124 24.7571 5.15618 24.0459C4.04163 22.7248 2.87723 21.121 1.88492 18.9038C1.47641 18.0059 1.1049 16.9996 0.776805 15.8776C0.733381 15.7194 0.689957 15.57 0.646533 15.4189C0.422981 14.617 0.268585 13.9396 0.164047 13.3653C0.0595078 12.8106 0.00965085 12.3518 0.0032177 11.9678C0.164047 12.3234 3.32273 19.295 4.27805 21.562C5.25589 23.8841 13.923 30.7579 13.923 30.7579H13.9214Z" fill="#332A21"/>
<path opacity="0.3" d="M23.3491 10.4262C22.4324 9.7008 21.7199 8.95403 21.7199 8.95403L19.6324 6.8453C19.6324 6.8453 18.3876 5.51001 18.1576 5.25042C17.9276 4.99794 18.238 3.11324 17.4451 2.79141C16.6522 2.46959 10.3654 3.02433 8.91636 3.65375C7.47372 4.27606 5.84935 6.87908 5.15617 7.35915C4.56754 7.77698 2.19531 9.19406 1.51983 9.59767C2.46068 8.8509 4.18316 5.4211 5.66922 3.76399C5.88634 3.51685 6.09702 3.31237 6.30128 3.16124C7.68923 2.11399 10.3027 1.52546 11.1889 1.34588C11.3803 1.3121 11.4928 1.29077 11.4928 1.29077C11.4928 1.29077 12.2793 1.16808 13.3263 1.03651C14.0564 0.933384 14.9121 0.837371 15.7049 0.769806C16.6152 0.695129 17.4451 0.659569 17.9163 0.736024C19.3847 0.95472 20.9882 2.194 20.9882 2.194C20.9882 2.194 21.6379 6.11809 21.8985 6.90575C22.0529 7.3787 22.7911 9.12472 23.3475 10.4262H23.3491Z" fill="#FFF3E2"/>
<path d="M22.2362 21.1993C22.2362 21.1993 21.2809 21.4553 21.4369 21.8554C21.5913 22.2554 23.1915 22.9399 23.4505 23.196C23.7078 23.452 23.2189 22.3977 22.9857 22.1967C22.7525 21.9958 22.3697 21.1566 22.2378 21.1975L22.2362 21.1993Z" fill="#FFF3E2"/>
<path d="M17.8102 1.09878C17.8102 1.09878 20.5153 0.584928 21.0975 0.456911C21.6813 0.328893 20.0908 1.35659 19.4539 1.61262C18.817 1.86866 17.2682 1.99845 17.8102 1.09878Z" fill="#FFF3E2"/>
<path d="M17.4612 4.73656C17.4612 4.73656 19.2094 3.96668 19.6324 3.924C20.0554 3.88133 19.3188 4.22271 18.7382 4.73656C18.1576 5.25041 17.3052 5.4211 17.4612 4.73656Z" fill="#FFF3E2"/>
<path d="M21.7199 8.9523C21.7199 8.9523 22.9969 8.58069 23.4231 8.43489C23.8493 8.2891 23.1529 8.58603 22.5707 9.08031C21.9885 9.5746 21.7183 8.95408 21.7183 8.95408L21.7199 8.9523Z" fill="#FFF3E2"/>
</g>
<defs>
<clipPath id="clip0_15_8092">
<rect width="131" height="85" fill="white"/>
</clipPath>
</defs>
</svg>
