<svg width="131" height="82" viewBox="0 0 131 82" fill="none" xmlns="http://www.w3.org/2000/svg">
<g clip-path="url(#clip0_15_8106)">
<path d="M62.0323 45.2273C62.0323 45.2273 58.4194 47.4753 55.8141 46.6361C53.2088 45.7969 28.4336 29.5885 28.4336 29.5885L3.88752 29.0835L1.2323 45.2938C1.2323 45.2938 5.50788 49.4411 7.13733 50.9038C8.76677 52.3666 0 46.0179 0 46.0179L2.46005 28.5103C2.46005 28.5103 0.506081 26.327 10.0286 26.4834C19.5511 26.6397 27.0787 26.4923 29.5478 27.8436C32.017 29.1949 55.3239 43.3944 55.3239 43.3944C55.3239 43.3944 56.6992 44.5534 57.3641 44.212C58.0291 43.8706 64.2677 42.7331 62.0346 45.2291L62.0323 45.2273Z" fill="#303A44"/>
<path d="M61.9779 48.0899C61.9779 48.0899 45.427 46.151 44.7416 47.098C44.7416 47.098 41.5395 47.4088 41.3103 48.5427C41.3103 48.5427 33.5307 52.3936 31.7015 53.6622C29.8701 54.9309 31.4723 54.2049 30.3285 60.3648C29.1847 66.5247 28.4971 67.2938 29.3572 68.2462C29.3572 68.2462 29.8724 71.3711 30.2151 72.4583C30.5577 73.5454 29.9586 68.0432 29.9586 68.0432C29.9586 68.0432 31.7605 59.5508 32.1032 57.3765L32.4459 55.2022L42.2271 49.6999C42.2271 49.6999 44.1153 49.2238 44.8869 49.089L45.6585 48.9524C45.6585 48.9524 60.5027 50.4529 63.5052 50.0755C66.5076 49.6981 64.2291 47.9785 61.9801 48.0917L61.9779 48.0899Z" fill="#303A44"/>
<path d="M67.2701 46.5354C67.2701 46.5354 68.3232 48.6936 66.0492 48.6918C63.7775 48.6918 53.8692 42.5067 53.8692 42.5067L42.0024 47.9658L41.6711 63.5867C41.6711 63.5867 44.8937 73.3423 43.8225 71.123C41.0742 65.4375 40.9018 62.9829 40.9018 62.9829C40.9018 62.9829 40.6476 49.247 40.8314 47.7951C41.0152 46.3432 42.4268 45.4806 43.9564 44.7601C45.486 44.0395 54.4298 40.0844 54.87 40.1491C55.3103 40.212 67.2701 46.5354 67.2701 46.5354Z" fill="#303A44"/>
<path d="M73.6154 47.3962C73.6154 47.3962 75.2267 48.8517 73.0231 49.1877C70.8195 49.5238 59.5133 46.3791 59.5133 46.3791L49.4961 52.2192L53.4539 63.9353C53.4539 63.9353 59.2546 70.7421 57.607 69.2452C53.3836 65.407 52.5416 63.5992 52.5416 63.5992C52.5416 63.5992 48.5293 53.3782 48.3114 52.2659C48.0913 51.1536 49.226 50.3 50.5127 49.5345C51.7995 48.769 59.393 44.4869 59.8355 44.469C60.2803 44.451 73.6154 47.3962 73.6154 47.3962Z" fill="#303A44"/>
<path d="M66.2489 40.0737C66.2489 40.0737 57.3256 40.0737 55.2672 43.1537C53.2088 46.2336 58.6986 52.2121 70.3679 52.3936C82.0373 52.5751 82.0373 39.8922 66.2489 40.0737Z" fill="#303A44"/>
<path d="M55.2672 43.1536C55.2672 43.1536 49.5482 43.5166 51.8358 46.2336C54.1234 48.9506 51.5862 44.3989 54.8428 44.3989C58.0994 44.3989 56.4064 43.0081 55.2672 43.1536Z" fill="#303A44"/>
<path d="M60.3575 44.5121C60.3575 44.5121 58.4126 44.1491 58.9278 45.5094C59.4429 46.8679 58.1448 47.4124 56.7355 47.5022C55.3239 47.5921 57.0215 48.0916 58.5465 48.0916C60.0716 48.0916 61.0451 47.141 61.2153 45.9173C61.3878 44.6936 60.3575 44.5139 60.3575 44.5139V44.5121Z" fill="#303A44"/>
<path d="M116.803 65.6172C110.866 72.5031 105.589 74.4959 103.393 74.1347C101.193 73.77 91.7413 74.1347 80.7482 66.3432C69.7597 58.5516 70.638 47.1177 73.7153 43.1446C73.7153 43.1446 78.0385 36.0269 97.2492 37.3746C97.2492 37.3746 97.2537 37.3746 97.256 37.3782C97.5374 37.4735 106.57 40.5786 110.065 43.7897C113.609 47.0512 114.199 47.8598 113.85 43.6532C120.91 50.4384 120.862 60.9092 116.803 65.619V65.6172Z" fill="#303A44"/>
<path d="M110.065 43.788C106.57 40.5786 97.5374 37.4717 97.256 37.3765C97.8914 37.4196 98.5473 37.4717 99.2168 37.5364C105.814 38.1671 110.591 40.5139 113.85 43.6478V43.6514C114.199 47.858 113.609 47.0476 110.065 43.788Z" fill="#EE4423"/>
<path opacity="0.1" d="M69.939 41.0027C69.939 41.0027 63.5029 40.2552 59.3862 41.7053C55.2672 43.1554 66.5076 45.0278 73.4566 45.1213C80.4056 45.2147 73.2115 41.1914 69.939 41.0027Z" fill="white"/>
<path opacity="0.1" d="M54.8405 43.3801C54.7225 43.4034 52.0333 43.7898 51.8335 44.469C51.6338 45.1465 51.947 46.1366 52.3487 45.1213C52.7504 44.106 54.609 44.0144 55.4079 43.9245C56.2067 43.8347 56.243 43.0997 54.8405 43.3819V43.3801Z" fill="white"/>
<path opacity="0.1" d="M60.3847 44.7835C60.1351 44.7368 59.2704 44.3307 59.4974 45.3495C59.7243 46.3684 59.3907 47.1842 58.4988 47.4555C57.607 47.7269 57.5593 47.7952 58.4988 47.7269C59.4384 47.6586 59.983 47.2201 60.4982 46.2174C61.0134 45.213 60.9112 44.8805 60.3847 44.7835Z" fill="white"/>
<path opacity="0.1" d="M82.4934 39.2579C82.4934 39.2579 78.2973 39.8922 77.8774 41.7035C77.4598 43.5148 86.2788 41.6136 97.256 48.4977C108.233 55.3818 115.441 70.9632 117.958 60.9991C120.474 51.035 113.63 33.0817 82.4934 39.2596V39.2579Z" fill="white"/>
<path d="M78.6581 47.0979C78.6581 47.0979 76.316 49.3117 79.7474 49.6747C83.1788 50.0377 109.949 44.4672 109.949 44.4672L125.964 52.3935L129.625 67.7915C129.625 67.7915 126.65 76.9308 128.023 74.1725C129.396 71.4141 130.998 67.247 130.998 67.247C130.998 67.247 127.566 54.0251 127.796 52.3935C128.025 50.7619 126.193 49.5813 124.135 48.5408C122.077 47.5004 109.949 41.7017 109.263 41.7017C108.578 41.7017 78.6581 47.0961 78.6581 47.0961V47.0979Z" fill="#303A44"/>
<path d="M74.2214 48.451C74.2214 48.451 72.7258 51.3513 76.1822 51.089C79.6385 50.8266 94.4033 41.7251 94.4033 41.7251L112.718 47.3944L113.988 67.4771C113.988 67.4771 109.563 80.4133 111.086 77.4322C114.987 69.7952 115.128 66.6128 115.128 66.6128C115.128 66.6128 114.842 48.8913 114.492 47.0422C114.143 45.1932 111.953 44.2444 109.59 43.4897C107.228 42.735 93.432 38.6703 92.7671 38.8014C92.1021 38.9326 74.2214 48.4492 74.2214 48.4492V48.451Z" fill="#303A44"/>
<path d="M69.3058 48.0557C69.3058 48.0557 66.4645 50.2354 69.762 51.0961C73.0594 51.955 91.1989 48.3216 91.1989 48.3216L112.867 58.6163L113.646 73.4914C113.646 73.4914 103.027 83.9281 105.937 81.6837C113.385 75.9317 115.13 73.062 115.13 73.062C115.13 73.062 114.054 60.6612 114.672 58.8571C115.289 57.053 113.076 56.7295 111.295 55.2884C109.513 53.8472 91.8616 45.2129 91.1853 45.1231C90.509 45.0332 69.3058 48.0557 69.3058 48.0557Z" fill="#303A44"/>
<path d="M66.7527 50.0377C66.7527 50.0377 62.5883 48.4996 62.3591 46.2785C62.1299 44.0593 69.2241 19.2381 69.2241 19.2381L58.7212 1.66578L39.2519 7.10154C39.2519 7.10154 36.5059 11.9928 35.5913 13.8041C34.6767 15.6155 37.8789 6.55707 37.8789 6.55707L58.7212 0.398934C58.7212 0.398934 60.3008 -1.96585 64.4198 4.832C68.5388 11.6298 72.1017 16.8841 71.6932 19.2399C71.2848 21.5957 65.7928 44.469 65.7928 44.469C65.7928 44.469 65.1074 45.9641 65.7928 46.2803C66.4781 46.5966 70.5744 50.4924 66.7527 50.0395V50.0377Z" fill="#303A44"/>
</g>
<defs>
<clipPath id="clip0_15_8106">
<rect width="131" height="82" fill="white"/>
</clipPath>
</defs>
</svg>
