<svg width="24" height="24" viewBox="0 0 24 24" fill="none" xmlns="http://www.w3.org/2000/svg">
<path d="M18.9999 0H4.99994C2.24261 0 -6.10352e-05 2.24267 -6.10352e-05 5V19C-6.10352e-05 21.7573 2.24261 24 4.99994 24H18.9999C21.7573 24 23.9999 21.7573 23.9999 19V5C23.9999 2.24267 21.7573 0 18.9999 0ZM9.66661 20H6.66661C5.19594 20 3.99994 18.804 3.99994 17.3333V14.3333C3.99994 13.7807 4.44794 13.3333 4.99994 13.3333C5.55194 13.3333 5.99994 13.7807 5.99994 14.3333V17.3333C5.99994 17.7007 6.29861 18 6.66661 18H9.66661C10.2186 18 10.6666 18.4473 10.6666 19C10.6666 19.5527 10.2186 20 9.66661 20ZM9.66661 6H6.66661C6.29861 6 5.99994 6.29933 5.99994 6.66667V9.66667C5.99994 10.2193 5.55194 10.6667 4.99994 10.6667C4.44794 10.6667 3.99994 10.2193 3.99994 9.66667V6.66667C3.99994 5.196 5.19594 4 6.66661 4H9.66661C10.2186 4 10.6666 4.44733 10.6666 5C10.6666 5.55267 10.2186 6 9.66661 6ZM19.9999 17.3333C19.9999 18.804 18.8039 20 17.3333 20H14.3333C13.7813 20 13.3333 19.5527 13.3333 19C13.3333 18.4473 13.7813 18 14.3333 18H17.3333C17.7013 18 17.9999 17.7007 17.9999 17.3333V14.3333C17.9999 13.7807 18.4479 13.3333 18.9999 13.3333C19.5519 13.3333 19.9999 13.7807 19.9999 14.3333V17.3333ZM19.9999 9.66667C19.9999 10.2193 19.5519 10.6667 18.9999 10.6667C18.4479 10.6667 17.9999 10.2193 17.9999 9.66667V6.66667C17.9999 6.29933 17.7013 6 17.3333 6H14.3333C13.7813 6 13.3333 5.55267 13.3333 5C13.3333 4.44733 13.7813 4 14.3333 4H17.3333C18.8039 4 19.9999 5.196 19.9999 6.66667V9.66667Z" fill="#303A44"/>
</svg>
