<svg width="27" height="24" viewBox="0 0 27 24" fill="none" xmlns="http://www.w3.org/2000/svg">
<path d="M5.83325 0.000100008C5.70074 -0.00177404 5.56918 0.0227071 5.44621 0.0721209C5.32324 0.121535 5.21132 0.194895 5.11695 0.28794C5.02258 0.380984 4.94765 0.491857 4.8965 0.614114C4.84535 0.736371 4.81901 0.867575 4.81901 1.0001C4.81901 1.13263 4.84535 1.26383 4.8965 1.38609C4.94765 1.50834 5.02258 1.61922 5.11695 1.71226C5.21132 1.8053 5.32324 1.87867 5.44621 1.92808C5.56918 1.97749 5.70074 2.00197 5.83325 2.0001H21.1666C21.2991 2.00197 21.4307 1.97749 21.5536 1.92808C21.6766 1.87867 21.7885 1.8053 21.8829 1.71226C21.9773 1.61922 22.0522 1.50834 22.1033 1.38609C22.1545 1.26383 22.1808 1.13263 22.1808 1.0001C22.1808 0.867575 22.1545 0.736371 22.1033 0.614114C22.0522 0.491857 21.9773 0.380984 21.8829 0.28794C21.7885 0.194895 21.6766 0.121535 21.5536 0.0721209C21.4307 0.0227071 21.2991 -0.00177404 21.1666 0.000100008H5.83325ZM3.83325 3.33343C3.70074 3.33156 3.56918 3.35604 3.44621 3.40546C3.32324 3.45487 3.21132 3.52823 3.11695 3.62127C3.02258 3.71432 2.94764 3.82519 2.8965 3.94745C2.84535 4.06971 2.81901 4.20091 2.81901 4.33343C2.81901 4.46596 2.84535 4.59716 2.8965 4.71942C2.94764 4.84168 3.02258 4.95255 3.11695 5.04559C3.21132 5.13864 3.32324 5.212 3.44621 5.26141C3.56918 5.31083 3.70074 5.33531 3.83325 5.33343H23.1666C23.2991 5.33531 23.4307 5.31083 23.5536 5.26141C23.6766 5.212 23.7885 5.13864 23.8829 5.04559C23.9773 4.95255 24.0522 4.84168 24.1033 4.71942C24.1545 4.59716 24.1808 4.46596 24.1808 4.33343C24.1808 4.20091 24.1545 4.06971 24.1033 3.94745C24.0522 3.82519 23.9773 3.71432 23.8829 3.62127C23.7885 3.52823 23.6766 3.45487 23.5536 3.40546C23.4307 3.35604 23.2991 3.33156 23.1666 3.33343H3.83325ZM3.16659 6.66677C1.87992 6.66677 0.833252 7.71343 0.833252 9.0001V21.6668C0.833252 22.9534 1.87992 24.0001 3.16659 24.0001H23.8333C25.1199 24.0001 26.1666 22.9534 26.1666 21.6668V9.0001C26.1666 7.71343 25.1199 6.66677 23.8333 6.66677H3.16659Z" fill="#303A44"/>
</svg>
