<svg width="26" height="25" viewBox="0 0 26 25" fill="none" xmlns="http://www.w3.org/2000/svg">
<path d="M18.6667 0.666504C14.9907 0.666504 12 3.62178 12 7.25244C12 8.81911 12.5693 10.3375 13.6133 11.5415C13.7247 11.6662 16.3426 14.5982 17.2266 15.4295C17.6306 15.8095 18.1474 15.9985 18.6654 15.9985C19.1834 15.9985 19.7022 15.8089 20.1055 15.4295C21.1322 14.4642 23.6179 11.6578 23.7292 11.5311C24.7646 10.3384 25.3334 8.81911 25.3334 7.25244C25.3334 3.62178 22.3427 0.666504 18.6667 0.666504ZM9.33338 3.82926V20.3019L14.642 24.1808V14.6587C13.6406 13.5747 12.6345 12.4475 12.6185 12.4295C11.3559 10.9735 10.6667 9.13978 10.6667 7.25244C10.6667 6.52511 10.775 5.82348 10.961 5.15348L9.33338 3.82926ZM7.33338 3.85531L0.411504 8.88786C0.152171 9.07653 4.57764e-05 9.37776 4.57764e-05 9.69775V23.6978C4.57764e-05 24.0738 0.210285 24.4177 0.545619 24.5884C0.688952 24.661 0.844713 24.6978 1.00005 24.6978C1.20805 24.6978 1.41459 24.633 1.58859 24.5063L7.33338 20.328V3.85531ZM18.6667 5.33317C19.7714 5.33317 20.6667 6.2285 20.6667 7.33317C20.6667 8.43784 19.7714 9.33317 18.6667 9.33317C17.562 9.33317 16.6667 8.43784 16.6667 7.33317C16.6667 6.2285 17.562 5.33317 18.6667 5.33317ZM23.7435 13.5142C22.8855 14.4655 21.6829 15.7769 21.0196 16.4009C20.3809 17.0015 19.546 17.3319 18.6667 17.3319C17.8407 17.3319 17.0582 17.0299 16.4362 16.4959V24.41L23.3321 19.3774C23.5914 19.1894 23.7435 18.8888 23.7435 18.5688V13.5142Z" fill="#303A44"/>
</svg>
