<svg width="22" height="28" viewBox="0 0 22 28" fill="none" xmlns="http://www.w3.org/2000/svg">
<path d="M10.9998 0.666504C9.23173 0.666504 7.53604 1.36888 6.2858 2.61913C5.03556 3.86937 4.33318 5.56506 4.33318 7.33317C4.33318 9.10128 5.03556 10.797 6.2858 12.0472C7.53604 13.2975 9.23173 13.9998 10.9998 13.9998C12.768 13.9998 14.4636 13.2975 15.7139 12.0472C16.9641 10.797 17.6665 9.10128 17.6665 7.33317C17.6665 5.56506 16.9641 3.86937 15.7139 2.61913C14.4636 1.36888 12.768 0.666504 10.9998 0.666504ZM19.0138 16.6665H2.98584C1.52318 16.6665 0.333176 17.8565 0.333176 19.3192V20.3332C0.333176 22.5412 1.58984 24.4505 3.87118 25.7085C5.76918 26.7565 8.30118 27.3332 10.9998 27.3332C16.1372 27.3332 21.6665 25.1425 21.6665 20.3332V19.3192C21.6665 17.8565 20.4765 16.6665 19.0138 16.6665Z" fill="#FC6C6D"/>
</svg>
