<svg width="28" height="26" viewBox="0 0 28 26" fill="none" xmlns="http://www.w3.org/2000/svg">
<path d="M14.0066 0.333516C13.8198 0.332349 13.6363 0.383576 13.477 0.481388C13.3178 0.5792 13.1891 0.719681 13.1056 0.886901L9.67071 7.75669L1.51446 9.0119C1.33189 9.04011 1.16071 9.11834 1.01989 9.2379C0.879067 9.35747 0.774114 9.5137 0.716668 9.68927C0.659222 9.86485 0.651528 10.0529 0.694439 10.2326C0.73735 10.4123 0.829189 10.5765 0.959772 10.7072L6.6017 16.3491L5.34519 24.5145C5.31708 24.6972 5.34014 24.8841 5.41183 25.0545C5.48351 25.2248 5.601 25.372 5.75126 25.4796C5.90151 25.5873 6.07866 25.6512 6.26303 25.6642C6.4474 25.6773 6.63179 25.639 6.79571 25.5536L14.0001 21.7945L21.2046 25.5536C21.3685 25.639 21.5529 25.6773 21.7372 25.6642C21.9216 25.6512 22.0988 25.5873 22.249 25.4796C22.3993 25.372 22.5168 25.2248 22.5885 25.0545C22.6601 24.8841 22.6832 24.6972 22.6551 24.5145L21.3986 16.3491L27.0405 10.7072C27.1711 10.5765 27.2629 10.4123 27.3058 10.2326C27.3488 10.0529 27.3411 9.86485 27.2836 9.68927C27.2262 9.5137 27.1212 9.35747 26.9804 9.2379C26.8396 9.11834 26.6684 9.04011 26.4858 9.0119L18.3296 7.75669L14.8947 0.886901C14.8122 0.72166 14.6855 0.582488 14.5288 0.484811C14.3721 0.387134 14.1913 0.334767 14.0066 0.333516Z" fill="#303A44"/>
</svg>
