<svg xmlns="http://www.w3.org/2000/svg" viewBox="0 0 200 200" width="200" height="200" preserveAspectRatio="xMidYMid meet" style="width: 100%; height: 100%; transform: translate3d(0px, 0px, 0px); content-visibility: visible;"><defs><clipPath id="__lottie_element_2"><rect width="200" height="200" x="0" y="0"></rect></clipPath><clipPath id="__lottie_element_4"><path d="M0,0 L200,0 L200,200 L0,200z"></path></clipPath></defs><g clip-path="url(#__lottie_element_2)"><g clip-path="url(#__lottie_element_4)" transform="matrix(1,0,0,1,0,0)" opacity="1" style="display: block;"><g transform="matrix(1,0,0,1,-199.5,-201.5)" opacity="1" style="display: block;"><g opacity="1" transform="matrix(1,0,0,1,275.00299072265625,324.9670104980469)"><path fill="rgb(238,49,36)" fill-opacity="1" d=" M24.996999740600586,24.996999740600586 C24.996999740600586,24.996999740600586 -24.996999740600586,24.996999740600586 -24.996999740600586,24.996999740600586 C-24.996999740600586,24.996999740600586 -24.996999740600586,-24.996999740600586 -24.996999740600586,-24.996999740600586 C-24.996999740600586,-24.996999740600586 24.996999740600586,-24.996999740600586 24.996999740600586,-24.996999740600586 C24.996999740600586,-24.996999740600586 24.996999740600586,24.996999740600586 24.996999740600586,24.996999740600586z"></path></g><g opacity="1" transform="matrix(1,0,0,1,275.3970031738281,324.9670104980469)"><path fill="rgb(255,255,255)" fill-opacity="1" d=" M-16.253999710083008,-14.145000457763672 C-16.253999710083008,-14.145000457763672 -0.041999999433755875,-14.145000457763672 -0.041999999433755875,-14.145000457763672 C5.21999979019165,-14.145000457763672 9.25,-12.914999961853027 12.050000190734863,-10.45300006866455 C14.850000381469727,-7.992000102996826 16.25200080871582,-4.514999866485596 16.2549991607666,-0.020999999716877937 C16.2549991607666,3.0290000438690186 15.628000259399414,5.60099983215332 14.37399959564209,7.691999912261963 C13.0649995803833,9.835000038146973 11.114999771118164,11.51200008392334 8.800000190734863,12.484000205993652 C6.3420000076293945,13.590999603271484 3.4030001163482666,14.145000457763672 -0.017999999225139618,14.145000457763672 C-0.017999999225139618,14.145000457763672 -16.253999710083008,14.145000457763672 -16.253999710083008,14.145000457763672 C-16.253999710083008,14.145000457763672 -16.253999710083008,-14.145000457763672 -16.253999710083008,-14.145000457763672z M-0.7329999804496765,7.2779998779296875 C0.7059999704360962,7.315999984741211 2.135999917984009,7.0329999923706055 3.453000068664551,6.449999809265137 C4.572999954223633,5.931000232696533 5.502999782562256,5.076000213623047 6.114999771118164,4.005000114440918 C6.76800012588501,2.7669999599456787 7.074999809265137,1.3760000467300415 7.004000186920166,-0.020999999716877937 C7.0289998054504395,-2.359999895095825 6.376999855041504,-4.156000137329102 5.046999931335449,-5.4070000648498535 C3.7179999351501465,-6.6579999923706055 1.7910000085830688,-7.284999847412109 -0.7329999804496765,-7.288000106811523 C-0.7329999804496765,-7.288000106811523 -7.14300012588501,-7.288000106811523 -7.14300012588501,-7.288000106811523 C-7.14300012588501,-7.288000106811523 -7.14300012588501,7.291999816894531 -7.14300012588501,7.291999816894531 C-7.14300012588501,7.291999816894531 -0.7329999804496765,7.2779998779296875 -0.7329999804496765,7.2779998779296875z"></path></g></g><g transform="matrix(1,0,0,1,-199.5,-201.5)" opacity="1" style="display: block;"><g opacity="1" transform="matrix(1,0,0,1,325.00799560546875,324.9670104980469)"><path fill="rgb(238,49,36)" fill-opacity="1" d=" M24.996999740600586,24.996999740600586 C24.996999740600586,24.996999740600586 -24.996999740600586,24.996999740600586 -24.996999740600586,24.996999740600586 C-24.996999740600586,24.996999740600586 -24.996999740600586,-24.996999740600586 -24.996999740600586,-24.996999740600586 C-24.996999740600586,-24.996999740600586 24.996999740600586,-24.996999740600586 24.996999740600586,-24.996999740600586 C24.996999740600586,-24.996999740600586 24.996999740600586,24.996999740600586 24.996999740600586,24.996999740600586z"></path></g><g opacity="1" transform="matrix(1,0,0,1,325.5849914550781,324.9670104980469)"><path fill="rgb(255,255,255)" fill-opacity="1" d=" M-12.697999954223633,-14.145000457763672 C-12.697999954223633,-14.145000457763672 12.314000129699707,-14.145000457763672 12.314000129699707,-14.145000457763672 C12.314000129699707,-14.145000457763672 12.314000129699707,-7.5929999351501465 12.314000129699707,-7.5929999351501465 C12.314000129699707,-7.5929999351501465 -3.625,-7.5929999351501465 -3.625,-7.5929999351501465 C-3.625,-7.5929999351501465 -3.625,-3.059000015258789 -3.625,-3.059000015258789 C-3.625,-3.059000015258789 10.732999801635742,-3.059000015258789 10.732999801635742,-3.059000015258789 C10.732999801635742,-3.059000015258789 10.732999801635742,2.546999931335449 10.732999801635742,2.546999931335449 C10.732999801635742,2.546999931335449 -3.625,2.546999931335449 -3.625,2.546999931335449 C-3.625,2.546999931335449 -3.625,7.5929999351501465 -3.625,7.5929999351501465 C-3.625,7.5929999351501465 12.697999954223633,7.5929999351501465 12.697999954223633,7.5929999351501465 C12.697999954223633,7.5929999351501465 12.697999954223633,14.145000457763672 12.697999954223633,14.145000457763672 C12.697999954223633,14.145000457763672 -12.697999954223633,14.145000457763672 -12.697999954223633,14.145000457763672 C-12.697999954223633,14.145000457763672 -12.697999954223633,-14.145000457763672 -12.697999954223633,-14.145000457763672z"></path></g></g><g transform="matrix(1,0,0,1,-199.66700744628906,-201.66700744628906)" opacity="1" style="display: block;"><g opacity="1" transform="matrix(1,0,0,1,325.00799560546875,374.9630126953125)"><path fill="rgb(238,49,36)" fill-opacity="1" d=" M24.996999740600586,24.996999740600586 C24.996999740600586,24.996999740600586 -24.996999740600586,24.996999740600586 -24.996999740600586,24.996999740600586 C-24.996999740600586,24.996999740600586 -24.996999740600586,-24.996999740600586 -24.996999740600586,-24.996999740600586 C-24.996999740600586,-24.996999740600586 24.996999740600586,-24.996999740600586 24.996999740600586,-24.996999740600586 C24.996999740600586,-24.996999740600586 24.996999740600586,24.996999740600586 24.996999740600586,24.996999740600586z"></path></g><g opacity="1" transform="matrix(1,0,0,1,325.5849914550781,374.9880065917969)"><path fill="rgb(255,255,255)" fill-opacity="1" d=" M-12.697999954223633,-14.137999534606934 C-12.697999954223633,-14.137999534606934 12.314000129699707,-14.137999534606934 12.314000129699707,-14.137999534606934 C12.314000129699707,-14.137999534606934 12.314000129699707,-7.60099983215332 12.314000129699707,-7.60099983215332 C12.314000129699707,-7.60099983215332 -3.625,-7.60099983215332 -3.625,-7.60099983215332 C-3.625,-7.60099983215332 -3.625,-3.062000036239624 -3.625,-3.062000036239624 C-3.625,-3.062000036239624 10.732999801635742,-3.062000036239624 10.732999801635742,-3.062000036239624 C10.732999801635742,-3.062000036239624 10.732999801635742,2.5399999618530273 10.732999801635742,2.5399999618530273 C10.732999801635742,2.5399999618530273 -3.625,2.5399999618530273 -3.625,2.5399999618530273 C-3.625,2.5399999618530273 -3.625,7.585999965667725 -3.625,7.585999965667725 C-3.625,7.585999965667725 12.697999954223633,7.585999965667725 12.697999954223633,7.585999965667725 C12.697999954223633,7.585999965667725 12.697999954223633,14.137999534606934 12.697999954223633,14.137999534606934 C12.697999954223633,14.137999534606934 -12.697999954223633,14.137999534606934 -12.697999954223633,14.137999534606934 C-12.697999954223633,14.137999534606934 -12.697999954223633,-14.137999534606934 -12.697999954223633,-14.137999534606934z"></path></g></g><g transform="matrix(1,0,0,1,-199.66700744628906,-201.66700744628906)" opacity="1" style="display: block;"><g opacity="1" transform="matrix(1,0,0,1,375.00299072265625,374.9630126953125)"><path fill="rgb(238,49,36)" fill-opacity="1" d=" M24.996999740600586,24.996999740600586 C24.996999740600586,24.996999740600586 -24.996999740600586,24.996999740600586 -24.996999740600586,24.996999740600586 C-24.996999740600586,24.996999740600586 -24.996999740600586,-24.996999740600586 -24.996999740600586,-24.996999740600586 C-24.996999740600586,-24.996999740600586 24.996999740600586,-24.996999740600586 24.996999740600586,-24.996999740600586 C24.996999740600586,-24.996999740600586 24.996999740600586,24.996999740600586 24.996999740600586,24.996999740600586z"></path></g><g opacity="1" transform="matrix(1,0,0,1,375.9779968261719,374.9930114746094)"><path fill="rgb(255,255,255)" fill-opacity="1" d=" M-15.5649995803833,-14.142999649047852 C-15.5649995803833,-14.142999649047852 -6.135000228881836,-14.142999649047852 -6.135000228881836,-14.142999649047852 C-6.135000228881836,-14.142999649047852 -6.135000228881836,-4.125 -6.135000228881836,-4.125 C-6.135000228881836,-4.125 -6.056000232696533,-4.125 -6.056000232696533,-4.125 C-6.056000232696533,-4.125 3.7699999809265137,-14.142999649047852 3.7699999809265137,-14.142999649047852 C3.7699999809265137,-14.142999649047852 15.366999626159668,-14.142999649047852 15.366999626159668,-14.142999649047852 C15.366999626159668,-14.142999649047852 3.7699999809265137,-3.0199999809265137 3.7699999809265137,-3.0199999809265137 C3.7699999809265137,-3.0199999809265137 15.5649995803833,14.142999649047852 15.5649995803833,14.142999649047852 C15.5649995803833,14.142999649047852 4.202000141143799,14.142999649047852 4.202000141143799,14.142999649047852 C4.202000141143799,14.142999649047852 -2.744999885559082,3.138000011444092 -2.744999885559082,3.138000011444092 C-2.744999885559082,3.138000011444092 -6.135000228881836,6.330999851226807 -6.135000228881836,6.330999851226807 C-6.135000228881836,6.330999851226807 -6.135000228881836,14.142999649047852 -6.135000228881836,14.142999649047852 C-6.135000228881836,14.142999649047852 -15.5649995803833,14.142999649047852 -15.5649995803833,14.142999649047852 C-15.5649995803833,14.142999649047852 -15.5649995803833,-14.142999649047852 -15.5649995803833,-14.142999649047852z"></path></g></g><g transform="matrix(1,0,0,1,-199.5,-199.5)" opacity="1" style="display: block;"><g opacity="1" transform="matrix(1,0,0,1,224.9969940185547,224.9969940185547)"><path fill="rgb(238,49,36)" fill-opacity="1" d=" M24.996999740600586,24.996999740600586 C24.996999740600586,24.996999740600586 -24.996999740600586,24.996999740600586 -24.996999740600586,24.996999740600586 C-24.996999740600586,24.996999740600586 -24.996999740600586,-24.996999740600586 -24.996999740600586,-24.996999740600586 C-24.996999740600586,-24.996999740600586 24.996999740600586,-24.996999740600586 24.996999740600586,-24.996999740600586 C24.996999740600586,-24.996999740600586 24.996999740600586,24.996999740600586 24.996999740600586,24.996999740600586z"></path></g><g opacity="1" transform="matrix(1,0,0,1,224.9969940185547,224.9980010986328)"><path fill="rgb(255,255,255)" fill-opacity="1" d=" M-15.670999526977539,-14.152000427246094 C-15.670999526977539,-14.152000427246094 -6.241000175476074,-14.152000427246094 -6.241000175476074,-14.152000427246094 C-6.241000175476074,-14.152000427246094 -6.241000175476074,-3.9179999828338623 -6.241000175476074,-3.9179999828338623 C-6.241000175476074,-3.9179999828338623 6.264999866485596,-3.9179999828338623 6.264999866485596,-3.9179999828338623 C6.264999866485596,-3.9179999828338623 6.264999866485596,-14.152000427246094 6.264999866485596,-14.152000427246094 C6.264999866485596,-14.152000427246094 15.670999526977539,-14.152000427246094 15.670999526977539,-14.152000427246094 C15.670999526977539,-14.152000427246094 15.670999526977539,14.152000427246094 15.670999526977539,14.152000427246094 C15.670999526977539,14.152000427246094 6.264999866485596,14.152000427246094 6.264999866485596,14.152000427246094 C6.264999866485596,14.152000427246094 6.264999866485596,2.9489998817443848 6.264999866485596,2.9489998817443848 C6.264999866485596,2.9489998817443848 -6.241000175476074,2.9489998817443848 -6.241000175476074,2.9489998817443848 C-6.241000175476074,2.9489998817443848 -6.241000175476074,14.152000427246094 -6.241000175476074,14.152000427246094 C-6.241000175476074,14.152000427246094 -15.647000312805176,14.152000427246094 -15.647000312805176,14.152000427246094 C-15.647000312805176,14.152000427246094 -15.670999526977539,-14.152000427246094 -15.670999526977539,-14.152000427246094z"></path></g></g><g transform="matrix(1,0,0,1,-199.5,-199.5)" opacity="1" style="display: block;"><g opacity="1" transform="matrix(1,0,0,1,224.9969940185547,274.97100830078125)"><path fill="rgb(238,49,36)" fill-opacity="1" d=" M24.996999740600586,24.996999740600586 C24.996999740600586,24.996999740600586 -24.996999740600586,24.996999740600586 -24.996999740600586,24.996999740600586 C-24.996999740600586,24.996999740600586 -24.996999740600586,-24.996999740600586 -24.996999740600586,-24.996999740600586 C-24.996999740600586,-24.996999740600586 24.996999740600586,-24.996999740600586 24.996999740600586,-24.996999740600586 C24.996999740600586,-24.996999740600586 24.996999740600586,24.996999740600586 24.996999740600586,24.996999740600586z"></path></g><g opacity="1" transform="matrix(1,0,0,1,224.9969940185547,274.97198486328125)"><path fill="rgb(255,255,255)" fill-opacity="1" d=" M-4.703000068664551,-14.145000457763672 C-4.703000068664551,-14.145000457763672 4.703000068664551,-14.145000457763672 4.703000068664551,-14.145000457763672 C4.703000068664551,-14.145000457763672 4.703000068664551,14.145000457763672 4.703000068664551,14.145000457763672 C4.703000068664551,14.145000457763672 -4.703000068664551,14.145000457763672 -4.703000068664551,14.145000457763672 C-4.703000068664551,14.145000457763672 -4.703000068664551,-14.145000457763672 -4.703000068664551,-14.145000457763672z"></path></g></g><g transform="matrix(1,0,0,1,-199.5,-199.5)" opacity="1" style="display: block;"><g opacity="1" transform="matrix(1,0,0,1,275.00299072265625,274.97100830078125)"><path fill="rgb(238,49,36)" fill-opacity="1" d=" M24.996999740600586,24.996999740600586 C24.996999740600586,24.996999740600586 -24.996999740600586,24.996999740600586 -24.996999740600586,24.996999740600586 C-24.996999740600586,24.996999740600586 -24.996999740600586,-24.996999740600586 -24.996999740600586,-24.996999740600586 C-24.996999740600586,-24.996999740600586 24.996999740600586,-24.996999740600586 24.996999740600586,-24.996999740600586 C24.996999740600586,-24.996999740600586 24.996999740600586,24.996999740600586 24.996999740600586,24.996999740600586z"></path></g><g opacity="1" transform="matrix(1,0,0,1,275.00201416015625,274.97198486328125)"><path fill="rgb(255,255,255)" fill-opacity="1" d=" M11.767000198364258,-3.4709999561309814 C11.767000198364258,-3.4709999561309814 3.4660000801086426,-3.4709999561309814 3.4660000801086426,-3.4709999561309814 C3.4660000801086426,-3.4709999561309814 3.4660000801086426,-11.767000198364258 3.4660000801086426,-11.767000198364258 C3.4660000801086426,-11.767000198364258 -3.4709999561309814,-11.767000198364258 -3.4709999561309814,-11.767000198364258 C-3.4709999561309814,-11.767000198364258 -3.4709999561309814,-3.4709999561309814 -3.4709999561309814,-3.4709999561309814 C-3.4709999561309814,-3.4709999561309814 -11.767999649047852,-3.4709999561309814 -11.767999649047852,-3.4709999561309814 C-11.767999649047852,-3.4709999561309814 -11.767999649047852,3.4660000801086426 -11.767999649047852,3.4660000801086426 C-11.767999649047852,3.4660000801086426 -3.4709999561309814,3.4660000801086426 -3.4709999561309814,3.4660000801086426 C-3.4709999561309814,3.4660000801086426 -3.4709999561309814,11.767000198364258 -3.4709999561309814,11.767000198364258 C-3.4709999561309814,11.767000198364258 3.4660000801086426,11.767000198364258 3.4660000801086426,11.767000198364258 C3.4660000801086426,11.767000198364258 3.4660000801086426,3.4660000801086426 3.4660000801086426,3.4660000801086426 C3.4660000801086426,3.4660000801086426 11.767000198364258,3.4660000801086426 11.767000198364258,3.4660000801086426 C11.767000198364258,3.4660000801086426 11.767000198364258,-3.4709999561309814 11.767000198364258,-3.4709999561309814z"></path></g></g><g transform="matrix(1,0,0,1,-199.5,-199.5)" opacity="1" style="display: block;"><g opacity="1" transform="matrix(1,0,0,1,325.00799560546875,274.97100830078125)"><path fill="rgb(238,49,36)" fill-opacity="1" d=" M24.996999740600586,24.996999740600586 C24.996999740600586,24.996999740600586 -24.996999740600586,24.996999740600586 -24.996999740600586,24.996999740600586 C-24.996999740600586,24.996999740600586 -24.996999740600586,-24.996999740600586 -24.996999740600586,-24.996999740600586 C-24.996999740600586,-24.996999740600586 24.996999740600586,-24.996999740600586 24.996999740600586,-24.996999740600586 C24.996999740600586,-24.996999740600586 24.996999740600586,24.996999740600586 24.996999740600586,24.996999740600586z"></path></g><g opacity="1" transform="matrix(1,0,0,1,325.156005859375,274.989990234375)"><path fill="rgb(255,255,255)" fill-opacity="1" d=" M-6.49399995803833,14.184000015258789 C-8.430000305175781,13.6899995803833 -10.265000343322754,12.86299991607666 -11.916999816894531,11.73799991607666 C-13.355999946594238,10.770999908447266 -14.53499984741211,9.46399974822998 -15.350000381469727,7.933000087738037 C-15.350000381469727,7.933000087738037 -9.78600025177002,4.105000019073486 -9.78600025177002,4.105000019073486 C-9.086999893188477,5.065000057220459 -8.210000038146973,5.881999969482422 -7.203999996185303,6.513000011444092 C-6.074999809265137,7.239999771118164 -4.84499979019165,7.796999931335449 -3.553999900817871,8.168999671936035 C-2.194999933242798,8.565999984741211 -0.7850000262260437,8.765999794006348 0.6309999823570251,8.76099967956543 C1.6039999723434448,8.777999877929688 2.5739998817443848,8.651000022888184 3.509999990463257,8.385000228881836 C4.203000068664551,8.197999954223633 4.853000164031982,7.879000186920166 5.423999786376953,7.443999767303467 C5.8520002365112305,7.123000144958496 6.107999801635742,6.620999813079834 6.114999771118164,6.085000038146973 C6.114999771118164,5.478000164031982 5.705999851226807,4.966000080108643 4.888000011444092,4.541999816894531 C3.6579999923706055,4.006999969482422 2.3550000190734863,3.6610000133514404 1.0219999551773071,3.5169999599456787 C1.0219999551773071,3.5169999599456787 -3.3329999446868896,2.881999969482422 -3.3329999446868896,2.881999969482422 C-7.309000015258789,2.384000062942505 -10.189000129699707,1.4630000591278076 -11.972999572753906,0.12099999934434891 C-13.756999969482422,-1.2209999561309814 -14.640000343322754,-3.114000082015991 -14.621000289916992,-5.559999942779541 C-14.666999816894531,-7.427999973297119 -14.020000457763672,-9.248000144958496 -12.805999755859375,-10.668000221252441 C-11.42300033569336,-12.187999725341797 -9.65999984741211,-13.310999870300293 -7.697999954223633,-13.92300033569336 C-5.248000144958496,-14.725000381469727 -2.680000066757202,-15.11299991607666 -0.10199999809265137,-15.069999694824219 C1.8240000009536743,-15.074000358581543 3.743000030517578,-14.821000099182129 5.603000164031982,-14.317999839782715 C7.2769999504089355,-13.892999649047852 8.868000030517578,-13.187000274658203 10.305999755859375,-12.229000091552734 C11.539999961853027,-11.425000190734863 12.562000274658203,-10.336000442504883 13.288000106811523,-9.055000305175781 C13.288000106811523,-9.055000305175781 8.081000328063965,-5.263999938964844 8.081000328063965,-5.263999938964844 C7.486000061035156,-6.002999782562256 6.771999835968018,-6.638999938964844 5.96999979019165,-7.144999980926514 C5.0970001220703125,-7.703999996185303 4.145999908447266,-8.128999710083008 3.1480000019073486,-8.406000137329102 C2.0950000286102295,-8.701000213623047 1.0049999952316284,-8.847999572753906 -0.08799999952316284,-8.843000411987305 C-1.031999945640564,-8.829999923706055 -1.9700000286102295,-8.710000038146973 -2.88700008392334,-8.486000061035156 C-3.5739998817443848,-8.33899974822998 -4.2179999351501465,-8.03499984741211 -4.76800012588501,-7.5970001220703125 C-5.164000034332275,-7.288000106811523 -5.4019999504089355,-6.818999767303467 -5.416999816894531,-6.316999912261963 C-5.445000171661377,-5.710999965667725 -5.0879998207092285,-5.2170000076293945 -4.354000091552734,-4.835999965667725 C-3.2909998893737793,-4.368000030517578 -2.1579999923706055,-4.081999778747559 -1.0010000467300415,-3.989000082015991 C-1.0010000467300415,-3.989000082015991 3.4579999446868896,-3.3970000743865967 3.4579999446868896,-3.3970000743865967 C7.565999984741211,-2.9230000972747803 10.57699966430664,-1.996999979019165 12.493000030517578,-0.6169999837875366 C14.409000396728516,0.7630000114440918 15.348999977111816,2.7279999256134033 15.3149995803833,5.281000137329102 C15.350000381469727,7.196000099182129 14.680000305175781,9.057000160217285 13.434000015258789,10.51099967956543 C12.001999855041504,12.105999946594238 10.16100025177002,13.279000282287598 8.109999656677246,13.902000427246094 C5.546999931335449,14.720000267028809 2.86899995803833,15.11400032043457 0.18000000715255737,15.067999839782715 C-2.0739998817443848,15.069999694824219 -4.317999839782715,14.77299976348877 -6.49399995803833,14.184000015258789z"></path></g></g></g></g></svg>